<svg width="21" height="22" viewBox="0 0 21 22" fill="none" xmlns="http://www.w3.org/2000/svg">
<path d="M15.0086 13.4277H14.06L13.7238 13.0981C14.9005 11.7065 15.6089 9.89986 15.6089 7.93453C15.6089 3.55223 12.1149 0 7.80446 0C3.494 0 0 3.55223 0 7.93453C0 12.3168 3.494 15.8691 7.80446 15.8691C9.73756 15.8691 11.5146 15.1489 12.8834 13.9526L13.2075 14.2944V15.2587L19.211 21.35L21 19.5312L15.0086 13.4277ZM7.80446 13.4277C4.81475 13.4277 2.40137 10.9741 2.40137 7.93453C2.40137 4.895 4.81475 2.4414 7.80446 2.4414C10.7942 2.4414 13.2075 4.895 13.2075 7.93453C13.2075 10.9741 10.7942 13.4277 7.80446 13.4277Z" fill="#404F5A"/>
</svg>
