<svg width="79" height="40" viewBox="0 0 79 40" fill="none" xmlns="http://www.w3.org/2000/svg">
<path d="M26.6408 26.8127C26.6408 26.2516 26.9155 25.6904 27.1901 25.1293C26.3662 25.6904 25.5423 25.971 24.4437 26.5321C24.4437 25.4098 24.993 24.5681 26.0915 24.0069C25.2676 24.0069 24.4437 24.2875 23.6197 24.8487C24.169 23.4458 24.7183 22.8846 25.8169 22.3235C26.3662 22.0429 26.6408 22.0429 27.1901 22.0429C27.4648 22.0429 27.7394 22.0429 28.0141 21.7623C29.3873 20.64 29.662 18.676 28.2887 17.2731C28.0141 17.2731 27.4648 17.2731 27.1901 16.9926C23.8944 16.4314 20.8732 15.5897 17.8521 13.9062C17.5775 13.9062 17.5775 13.9062 17.3028 13.6257C13.4577 13.6257 9.61268 13.6257 5.76761 13.3451C4.11972 13.3451 2.74648 11.9422 2.74648 10.2587C3.29577 10.5393 3.57042 10.8199 4.11972 11.381C4.39437 11.1005 4.39437 10.5393 4.66901 10.2587C4.94366 10.5393 5.49296 11.1005 6.04225 11.381C6.3169 11.1005 6.59155 10.5393 6.8662 10.2587C7.14084 10.5393 7.14084 10.8199 7.41549 11.381C7.96479 10.8199 8.23944 10.5393 8.51408 9.97817C9.33803 11.1005 10.162 11.1005 10.9859 11.1005C12.6338 11.1005 14.2817 10.8199 15.9296 10.5393C16.4789 10.2587 16.4789 9.97817 16.4789 9.69759C16.2042 8.85587 15.6549 8.29472 15.1056 7.73356C14.2817 7.45299 13.7324 7.17241 12.9085 7.17241C12.9085 7.17241 12.6338 7.17241 12.6338 7.45299C12.3592 7.45299 12.0845 7.73356 11.8099 8.01414C11.2606 7.45299 10.9859 6.89184 10.7113 6.33069C10.4366 6.61126 10.162 6.89184 9.88732 7.17241C9.61268 6.89184 9.33803 6.33069 9.06338 5.76954C8.51408 6.33069 8.51408 6.61126 7.96479 6.89184C7.69014 6.33069 7.41549 6.05011 7.14084 5.48896C6.8662 5.76954 6.8662 6.05011 6.59155 6.33069C6.59155 6.33069 6.59155 6.33069 6.3169 6.33069C6.04225 5.76954 5.76761 5.48896 5.76761 4.92781C5.49296 5.48896 5.21831 5.76954 4.94366 6.05011C4.66901 5.48896 4.11972 4.92781 3.57042 4.36666C3.29577 4.64723 3.29577 4.92781 3.02113 5.20838C3.02113 5.20838 3.02113 5.20838 2.74648 4.92781C2.19718 4.08608 1.37324 3.52493 0.274648 3.24435C0 2.96378 0 2.96378 0 2.40263C0.549296 0.99975 2.47183 0.438599 3.84507 1.5609C4.11972 1.84148 4.39437 1.84148 4.66901 1.84148C8.51408 2.6832 12.6338 3.24435 16.4789 4.08608C16.4789 4.08608 16.7535 4.08608 17.0282 4.08608C17.0282 3.52493 17.3028 3.24435 17.3028 2.6832C18.1268 3.24435 19.2254 3.24435 20.0493 3.24435C21.4225 2.96378 22.7958 3.52493 24.169 4.36666C25.2676 5.20838 26.6408 5.48896 28.0141 6.05011C31.3099 6.89184 34.6056 6.89184 37.9014 6.05011C40.6479 5.48896 43.1197 5.20838 45.8662 5.48896C48.0634 5.76954 50.2606 6.33069 52.1831 6.89184C56.8521 8.29471 61.5211 9.41702 65.9155 11.1005C70.3099 12.5033 73.8803 15.5897 76.3521 19.5177C77.1761 20.9206 78 22.3235 78 24.0069C78.2746 25.6904 77.7253 27.3739 76.9014 29.0573C73.8803 34.6688 69.2113 38.3163 62.8944 39.4386C59.5986 39.9998 56.5775 39.9998 53.2817 39.158C53.2817 39.158 53.2817 39.158 53.007 39.158C55.2042 39.158 57.6761 39.158 59.8732 38.5969C63.4437 37.7551 66.4648 36.3523 69.2113 33.8271C71.6831 31.5825 72.7817 28.7767 72.2324 25.4098C71.9577 22.8846 70.5845 21.4818 68.3873 20.64C66.7394 20.0789 64.8169 19.7983 62.8944 19.5177C60.4225 19.2372 58.2253 18.9566 55.7535 18.676C55.4789 18.676 55.4789 18.3954 55.2042 18.3954C54.6549 17.5537 54.3803 16.712 53.831 15.8703C54.1056 16.9926 54.1056 18.1149 54.3803 19.2372C54.6549 20.64 54.3803 22.3235 54.1056 23.7264C53.831 24.5681 53.2817 25.1292 52.4577 25.6904C51.3592 25.971 50.5352 26.8127 49.9859 27.3739C49.9859 27.3739 49.9859 27.6544 49.7113 27.6544C49.4366 26.8127 49.4366 26.2516 49.9859 25.4098C49.4366 25.6904 48.8873 26.2516 48.6127 26.8127C48.338 27.3739 48.0634 27.935 48.0634 28.4962C47.2394 27.6544 47.2394 26.5321 48.0634 25.4098C47.5141 25.6904 47.2394 25.971 46.6901 27.3739C46.4155 26.2516 46.4155 25.4098 47.2394 24.5681C47.5141 24.2875 48.0634 23.7264 48.338 23.4458C49.162 23.1652 49.4366 22.3235 49.7113 21.4818C49.7113 20.64 49.7113 20.0789 49.162 19.5177C49.162 19.2372 48.8873 19.2372 48.6127 19.2372C45.8662 19.5177 43.3944 19.7983 40.6479 19.5177C38.7254 19.2372 36.8028 18.9566 34.6056 18.676C34.331 18.676 34.331 18.3954 34.0563 18.3954C33.507 17.5537 33.2324 16.9926 32.9577 16.1508C33.2324 17.2731 33.507 18.3954 33.2324 19.5177C32.9577 21.7623 31.8592 23.7264 29.662 24.8487C29.3873 25.1292 29.1127 25.1293 28.838 25.1293C28.2887 25.971 27.4648 26.2516 26.6408 26.8127Z" fill="black"/>
</svg>
