<svg width="42" height="67" viewBox="0 0 42 67" fill="none" xmlns="http://www.w3.org/2000/svg">
<path d="M35.4549 5.2535C36.1374 6.1042 36.8198 6.82888 37.3781 7.64807C38.8671 9.8536 40.2939 12.0906 41.7518 14.2962C41.8449 14.4537 41.938 14.6112 41.969 14.8318C41.7829 14.7058 41.5968 14.5797 41.4417 14.4537C39.2703 12.4687 37.0679 10.4522 34.8966 8.46727C34.7105 8.30973 34.5554 8.15219 34.3693 7.96315C34.1211 7.67958 33.8109 7.61656 33.4697 7.74259C33.1285 7.86862 33.1595 8.1837 33.0975 8.49877C32.8183 10.1687 33.1595 11.8071 33.5007 13.4139C34.1211 16.5332 34.2142 19.6524 33.4077 22.7402C32.7873 25.1347 31.6396 27.2142 30.1817 29.1677C29.2511 30.428 28.3205 31.6568 27.39 32.9171C26.3663 34.2719 25.0325 35.2487 23.6677 36.1624C23.3885 36.3514 23.2334 36.5405 23.2024 36.887C23.0473 38.62 22.8612 40.3844 22.644 42.1173C22.551 42.9365 22.675 43.7242 23.0162 44.4804C23.2334 44.9215 23.1713 45.3941 23.0473 45.8667C22.9852 46.1187 22.9542 46.4023 22.9852 46.6544C23.2024 49.5531 23.4505 52.4518 23.6677 55.3505C23.7917 57.0519 23.9158 58.7848 24.0709 60.4862C24.1329 61.2424 24.288 61.3369 25.0015 61.4944C25.6839 61.652 26.3353 61.841 27.0177 62.03C27.1108 62.0616 27.1728 62.1246 27.3279 62.2191C26.9557 62.1876 26.6765 62.1561 26.4284 62.1246C26.4284 62.1561 26.4284 62.1876 26.3973 62.2191C27.1108 62.4081 27.7932 62.5972 28.5066 62.7862C28.5066 62.8177 28.4756 62.8807 28.4756 62.9123C27.7622 63.0068 27.0487 62.9438 26.3663 62.7547C25.808 62.5972 25.2496 62.4081 24.7223 62.2191C24.288 62.0616 24.0709 62.1561 23.9468 62.5972C23.8848 62.8177 23.8227 63.0698 23.7607 63.3534C23.1093 62.7862 23.0473 62.03 22.7991 61.2739C22.4269 61.5889 22.0857 61.904 21.7134 62.2191C21.6514 61.778 21.7755 61.4944 22.0547 61.2424C22.2097 61.0848 22.4269 60.9273 22.613 60.8328C23.0473 60.6437 23.1403 60.2971 23.1403 59.856C23.0783 55.5395 22.582 51.223 22.0236 46.9695C21.8375 45.5831 21.5894 44.1968 21.7134 42.779C21.8685 41.1721 22.0236 39.5337 22.1787 37.9268C22.2097 37.7062 22.2097 37.4857 22.2408 37.1706C21.7755 37.4227 21.3722 37.6747 20.969 37.9268C19.6041 38.7775 19.7592 38.5254 19.5421 40.1008C19.325 41.8337 19.2009 43.5666 19.0148 45.2996C18.9527 46.0242 19.1699 46.6544 19.387 47.2845C19.4801 47.5996 19.5731 47.9777 19.4801 48.2928C19.2319 49.112 19.387 49.9312 19.449 50.7188C19.6352 53.3025 19.8523 55.9176 20.0694 58.5012C20.1935 60.0451 20.2866 61.5889 20.4106 63.1013C20.4417 63.3219 20.4727 63.5109 20.5347 63.7315C20.6278 64.015 20.8139 64.1726 21.1241 64.2356C21.5894 64.3301 22.0547 64.3931 22.5199 64.5191C22.8922 64.6137 23.2644 64.7712 23.6366 64.9287C23.6366 64.9602 23.6056 64.9918 23.6056 65.0233C23.3264 64.9918 23.0473 64.9602 22.7681 64.9287C22.7681 64.9602 22.7371 64.9918 22.7371 65.0233C23.4505 65.2123 24.1329 65.4014 24.8464 65.6219C24.8464 65.6534 24.8154 65.7164 24.8154 65.7479C24.226 65.8425 23.6056 65.811 23.0162 65.6534C22.3648 65.4959 21.7134 65.2753 21.0931 65.0548C20.5657 64.8657 20.3796 64.9602 20.2245 65.4959C20.1625 65.6849 20.1315 65.874 20.0694 66.0945C19.7282 65.937 19.7282 65.937 19.0768 64.078C18.7046 64.3931 18.3634 64.7082 17.9911 65.0233C17.9601 64.5506 18.1152 64.2041 18.4254 63.952C18.6115 63.7945 18.7976 63.6684 19.0148 63.5424C19.356 63.3849 19.4801 63.1013 19.449 62.7547C19.387 61.2739 19.387 59.7615 19.2629 58.2807C19.0458 55.7285 18.7356 53.2079 18.4564 50.6873C18.3323 49.4901 18.0842 48.2928 18.0222 47.064C17.9601 46.1188 18.0842 45.205 18.1462 44.2598C18.2703 42.7159 18.4254 41.2036 18.5185 39.6597C18.6115 38.3364 18.0532 37.8638 16.7814 38.2104C15.8508 38.4624 14.9513 38.872 14.0207 39.1241C13.3693 39.3131 12.6869 39.3761 12.0044 39.5337C11.384 39.6597 10.7637 39.7542 10.2053 40.0378C8.59232 40.8255 7.04136 41.7392 5.45938 42.5584C3.97046 43.3146 2.48154 44.0708 1.02363 44.7954C0.930576 44.8269 0.837518 44.8584 0.651403 44.9215C0.744461 44.6064 0.77548 44.3228 0.899557 44.0708C1.33383 43.2516 1.76809 42.4639 2.23338 41.6447C2.51256 41.1721 2.82275 40.6995 3.10192 40.2268C3.19498 40.0693 3.28804 39.8803 3.35007 39.6912C2.23338 40.5734 1.14771 41.4241 0.0620384 42.3063C0.0310192 42.2748 0.0310192 42.2748 0 42.2433C0 42.2118 0 42.1803 0.0310192 42.1488C1.67504 40.1638 2.9158 37.8953 4.15657 35.6267C5.70753 32.7911 7.13442 29.8609 8.96455 27.2142C9.86411 25.8909 10.8567 24.6306 11.9114 23.4018C13.9586 21.0073 16.6263 19.6209 19.5421 18.6442C21.7755 17.9195 24.1019 17.5099 26.3973 17.0373C26.9867 16.9113 27.545 16.7537 28.1344 16.6277C29.3442 16.3441 29.9025 15.4934 30.0266 14.2962C30.2127 12.6893 29.9335 11.1454 29.5613 9.60154C29.3752 8.84536 29.096 8.12068 28.8479 7.3645C28.4136 6.13571 28.0724 4.87541 28.2275 3.55209C28.4136 1.97672 29.2201 1.15752 30.771 0.968478C31.6086 0.873956 32.4461 0.936971 33.2216 1.18903C35.0207 1.81918 35.8892 3.42606 35.4549 5.2535Z" fill="black"/>
</svg>
