<svg width="65" height="49" viewBox="0 0 65 49" fill="none" xmlns="http://www.w3.org/2000/svg">
<path d="M60.6228 3.38275C60.3575 4.37765 60.1585 5.43888 59.6942 6.63276C58.5585 9.88496 56.5089 12.7406 53.7911 14.8573C51.5197 16.5321 49.0461 17.9138 46.4289 18.9695C43.5105 20.2961 40.5258 21.5563 37.6737 22.9491C32.865 25.2415 28.5591 28.4653 25.0053 32.4339C22.1965 35.3605 19.9484 38.7776 18.3727 42.5155C17.5547 44.4608 16.9326 46.4827 16.5155 48.5513H12.6022C12.6022 47.8217 12.6022 47.2247 13.0665 46.5615C14.2023 42.169 16.1114 38.014 18.7043 34.291C19.2872 33.4463 19.9069 32.6274 20.5614 31.8369C24.2515 27.3581 28.9279 23.7941 34.2247 21.4236C37.0768 19.8981 39.7962 19.1022 42.9135 17.9083C46.125 16.6997 49.1944 15.1428 52.0666 13.2654C55.6727 10.8665 58.5427 7.51434 60.3575 3.58173L60.6228 3.38275Z" fill="black"/>
<path d="M41.9184 47.3576C38.0798 47.9512 34.1906 48.1513 30.3113 47.9545C26.0661 47.7667 21.8582 47.0765 17.7755 45.8984C17.7755 45.8984 17.7755 45.2351 17.7755 44.9698L18.5714 42.781C23.468 42.384 28.3965 42.7872 33.1633 43.9749C36.1693 44.7085 39.0837 45.7764 41.8521 47.1586L41.9184 47.3576Z" fill="black"/>
<path d="M13.2653 43.1787C7.39399 37.4543 2.86367 30.5002 0 22.8164H0.331634C5.62198 26.2747 10.1386 30.7914 13.597 36.0818L15.1225 38.6685C15.1878 38.7415 15.2238 38.8359 15.2238 38.9338C15.2238 39.0317 15.1878 39.1261 15.1225 39.1991C15.1225 39.796 14.5919 40.393 14.3929 40.9899C14.1939 41.5869 13.7296 42.5154 13.2653 43.1787Z" fill="black"/>
<path d="M4.84166 17.7095L7.56105 19.6993C11.3299 22.6693 14.5413 26.285 17.0458 30.3779C17.5764 31.1739 18.0407 31.9698 18.505 32.832C18.9692 33.6943 18.505 32.832 18.505 33.429L16.7805 36.0157C11.5041 30.8777 7.40775 24.6541 4.77533 17.7759L4.84166 17.7095Z" fill="black"/>
<path d="M20.5611 39.1991L22.2856 36.5461C22.2856 36.5461 22.2856 36.5461 22.6836 36.5461C24.6627 36.5552 26.6376 36.7327 28.5866 37.0767C32.7041 37.7124 36.6912 39.0116 40.3928 40.9236L42.051 41.7859C34.7848 42.4942 27.4516 41.6114 20.5611 39.1991Z" fill="black"/>
<path d="M21.0254 30.2452C16.4171 25.7898 12.8793 20.3471 10.6785 14.3268L12.3366 15.587C14.8191 17.3044 17.0513 19.358 18.9693 21.689C20.5955 23.625 21.9973 25.7388 23.1479 27.9901C23.1479 27.9901 23.1479 27.9901 23.1479 28.4544L21.0254 30.2452Z" fill="black"/>
<path d="M24.2754 33.8269L26.5305 31.7044C29.9132 32.1499 33.2171 33.0652 36.3469 34.4238C38.6989 35.3634 40.9265 36.5886 42.9795 38.0718C36.5026 38.1023 30.1046 36.6503 24.2754 33.8269Z" fill="black"/>
<path d="M17.3775 10.8113L19.8979 13.2654C22.9893 16.5156 25.3622 20.3799 26.8622 24.6072C26.8971 24.6677 26.9155 24.7364 26.9155 24.8062C26.9155 24.8761 26.8971 24.9447 26.8622 25.0052L25.0714 26.5307C21.3392 21.9888 18.6859 16.6595 17.3112 10.9439L17.3775 10.8113Z" fill="black"/>
<path d="M43.9746 35.4847C38.3663 34.7718 32.9799 32.8481 28.1888 29.8469L30.245 28.1224H30.5766C33.8391 28.9258 36.9517 30.247 39.796 32.0357C41.2442 33.0223 42.639 34.085 43.9746 35.2194V35.4847Z" fill="black"/>
<path d="M24.3418 8.95398C24.6858 9.27602 24.9968 9.63152 25.2704 10.0152C28.1397 13.3995 30.2035 17.3909 31.3061 21.6887C31.3061 21.6887 31.3061 22.0867 31.3061 22.2193L30.4439 22.7499L29.5153 23.2142C26.7942 18.8838 25.0303 14.0218 24.3418 8.95398Z" fill="black"/>
<path d="M45.898 32.5003C41.0639 31.5192 36.5232 29.4304 32.6326 26.3983L33.1632 25.8013C33.4543 25.5958 33.8018 25.4854 34.1581 25.4854C34.5145 25.4854 34.862 25.5958 35.153 25.8013C37.1732 26.677 39.1054 27.7431 40.9235 28.985C42.4305 30.0382 43.8104 31.2623 45.0357 32.633C45.0357 32.633 45.8316 32.434 45.898 32.5003Z" fill="black"/>
<path d="M33.6278 20.9593C31.5603 16.6288 30.4732 11.8956 30.4442 7.09698L31.2401 8.22454C33.4101 11.502 34.8364 15.2147 35.4187 19.1021C35.4187 20.097 35.4187 20.097 34.6227 20.495L33.6278 20.9593Z" fill="black"/>
<path d="M36.0154 6.63269L37.2093 9.02045C37.7282 10.2455 38.1496 11.5097 38.4695 12.8011C38.9875 14.6377 39.2771 16.5313 39.3317 18.4388C39.3725 18.5094 39.3939 18.5895 39.3939 18.671C39.3939 18.7525 39.3725 18.8326 39.3317 18.9031C38.8022 19.0437 38.2904 19.2439 37.8062 19.5001C36.2638 15.3958 35.6302 11.0057 35.949 6.63269H36.0154Z" fill="black"/>
<path d="M48.2859 29.4491C43.8713 28.6568 39.6966 26.8644 36.0818 24.2093L38.1379 23.2144C40.5111 23.9292 42.7515 25.027 44.7706 26.4644C45.8981 27.2603 46.9594 28.2552 48.0869 29.1838L48.2859 29.4491Z" fill="black"/>
<path d="M40.7908 5.9032C40.7908 6.56647 41.4541 7.22973 41.7194 7.893C42.8777 10.6679 43.4859 13.6413 43.5102 16.6481C43.5102 16.6481 43.5102 17.0461 43.5102 17.1124L41.9847 17.7094C40.771 13.8996 40.3423 9.88331 40.7245 5.9032H40.7908Z" fill="black"/>
<path d="M40.3931 22.1532L42.5156 21.2246C45.8332 22.3162 48.8684 24.1282 51.4034 26.5307C47.4502 25.9202 43.6863 24.4237 40.3931 22.1532Z" fill="black"/>
<path d="M44.041 20.5612L45.8982 19.8979H46.4288C49.6381 20.9381 52.55 22.7353 54.9186 25.1378C50.9951 24.4482 47.2773 22.884 44.041 20.5612Z" fill="black"/>
<path d="M45.8317 5.9032C45.8317 6.69912 46.2959 7.42871 46.4286 8.22463C46.983 10.502 47.1401 12.8581 46.8929 15.1889C46.8732 15.3121 46.8192 15.4272 46.7371 15.5211C46.655 15.6149 46.548 15.6837 46.4286 15.7196L44.9694 16.3828C44.5117 12.8759 44.7597 9.31286 45.699 5.9032H45.8317Z" fill="black"/>
<path d="M56.9082 22.8826C53.5375 22.2938 50.3417 20.9566 47.5562 18.9693L49.2806 18.1071C51.9939 19.0903 54.4608 20.6519 56.5103 22.6836L56.9082 22.8826Z" fill="black"/>
<path d="M60.0258 20.8266C56.82 20.2396 53.7844 18.9484 51.1381 17.046L52.4646 16.1837C55.2079 17.0714 57.6908 18.6203 59.6942 20.6939L60.0258 20.8266Z" fill="black"/>
<path d="M49.4799 5.9032C50.3284 8.25934 50.6675 10.7686 50.4748 13.2655C50.5039 13.3159 50.5192 13.3731 50.5192 13.4313C50.5192 13.4895 50.5039 13.5467 50.4748 13.5971L49.1483 14.393C48.7049 11.5685 48.8176 8.68455 49.4799 5.9032Z" fill="black"/>
<path d="M54.5204 14.7242L55.5153 13.7957H55.8469C57.2113 14.2279 58.5068 14.8533 59.6939 15.6528C60.6641 16.2716 61.555 17.0067 62.3469 17.8416C59.538 17.4 56.8637 16.3348 54.5204 14.7242Z" fill="black"/>
<path d="M52.0665 12.5358C51.7419 10.0271 51.9223 7.47883 52.5971 5.04089H53.0614V7.22968C53.2261 8.4845 53.2261 9.75547 53.0614 11.0103C53.1023 11.0928 53.1236 11.1836 53.1236 11.2756C53.1236 11.3677 53.1023 11.4585 53.0614 11.5409L52.0665 12.5358Z" fill="black"/>
<path d="M64.337 13.2656C61.9254 13.334 59.5273 12.8815 57.3064 11.9391L57.9697 11.0105C60.2456 11.2257 62.433 12.0004 64.337 13.2656Z" fill="black"/>
<path d="M55.7807 3.64795C55.7807 4.44387 56.1786 5.23979 56.3113 5.96938C56.444 6.69898 56.3113 7.42857 56.3113 8.09184C56.3619 8.24247 56.3619 8.40549 56.3113 8.55613L55.1837 9.88266C54.9337 7.81596 55.0914 5.72026 55.648 3.71428L55.7807 3.64795Z" fill="black"/>
<path d="M65 8.15815C63.115 8.86249 61.1071 9.17834 59.0969 9.08672L59.6939 8.15815C60.7681 7.9599 61.8696 7.9599 62.9439 8.15815H64.602H65Z" fill="black"/>
<path d="M57.1072 7.42865C56.8057 5.5217 56.9418 3.57117 57.5051 1.72455V2.32149C57.841 3.48395 57.9756 4.69529 57.9031 5.90313C57.9319 6.03423 57.9319 6.17 57.9031 6.30109L57.1072 7.42865Z" fill="black"/>
<path d="M64.9337 5.37227C63.4835 5.95716 61.9138 6.18465 60.3572 6.03554C60.3572 5.37227 60.3572 5.37227 61.0868 5.23962C62.3619 4.9839 63.6792 5.02932 64.9337 5.37227Z" fill="black"/>
<path d="M58.8317 4.90831C58.5332 3.59857 58.5332 2.23845 58.8317 0.928711C59.2952 1.83279 59.5449 2.83126 59.5613 3.84709C59.4022 4.25183 59.1527 4.61482 58.8317 4.90831Z" fill="black"/>
<path d="M62.0818 0C61.9641 1.18856 61.4226 2.29507 60.5563 3.11736C60.6907 1.93358 61.2296 0.83247 62.0818 0V0Z" fill="black"/>
<path d="M63.5409 3.51542C62.6828 3.96706 61.7247 4.19517 60.7551 4.17869C60.7551 3.78073 60.7551 3.64807 61.2194 3.58175C61.9833 3.42328 62.7692 3.40083 63.5409 3.51542Z" fill="black"/>
</svg>
