<svg width="61" height="40" viewBox="0 0 61 40" fill="none" xmlns="http://www.w3.org/2000/svg">
<path d="M58.5421 36.8273C58.3177 36.4874 58.0934 36.1474 57.7569 35.6942C56.9717 35.9208 55.9622 36.2608 54.9527 36.4874C54.9527 36.6007 54.9527 36.714 54.9527 36.8273C55.6257 36.8273 56.4109 36.8273 57.0839 36.8273C57.8691 36.8273 58.4299 36.9406 58.8786 37.6205C58.9907 37.8472 59.1029 38.1871 59.3272 38.4137C58.9907 38.5271 58.6542 38.7537 58.3177 38.7537C58.2056 38.7537 58.0934 38.3004 57.8691 38.0738C57.8691 37.9605 57.8691 37.8472 57.7569 37.6205C56.5231 37.7338 55.4014 37.9605 54.1675 38.0738C51.5877 38.4137 49.0078 38.4137 46.428 37.9605C44.6333 37.6205 43.1751 36.714 41.9413 35.3542C41.6048 34.901 41.1561 33.7678 40.371 35.0143L39.8101 34.6744C39.9223 34.3344 40.0345 33.8812 40.2588 33.7678C40.4831 33.6545 40.9318 33.6545 41.1561 33.8812C41.9413 34.3344 42.7265 34.7877 43.5117 35.2409C42.0535 32.9746 40.5953 30.595 39.1371 28.3287C37.3424 31.5016 34.2018 33.2013 30.6124 34.4477C29.3786 34.901 28.2569 35.5809 27.1352 36.2608C27.1352 36.3741 27.2474 36.4874 27.2474 36.6007C27.4717 36.6007 27.5839 36.6007 27.8082 36.6007C30.7246 36.3741 33.6409 36.0341 36.4451 35.9208C37.6789 35.9208 39.025 36.1474 40.1466 36.3741C41.4926 36.714 42.8386 37.2806 44.1847 37.7338C44.5212 37.8472 44.8577 37.9605 44.9698 38.1871C45.1942 38.4137 45.082 38.867 45.1942 39.2069C44.8577 39.2069 44.5212 39.2069 44.2968 39.0936C41.717 37.6205 39.1371 36.6007 36.2208 37.3939C36.3329 38.0738 37.7911 37.5072 37.2303 38.6404C36.1086 38.4137 35.0991 38.1871 34.0896 38.0738C34.0896 38.1871 33.9774 38.4137 33.9774 38.527C34.7626 38.867 35.5478 39.2069 36.2208 39.5469C36.2208 39.6602 36.1086 39.8868 36.1086 40.0001C35.6599 40.0001 35.2113 40.0001 34.7626 39.8868C32.4071 39.0936 30.0516 39.4336 27.6961 39.4336C24.8919 39.4336 22.0877 39.4336 19.1713 39.3202C17.2645 39.2069 15.4698 38.867 13.563 38.7537C11.4318 38.7537 9.86146 37.5072 8.29112 36.3741C5.48693 34.4477 3.01925 31.7282 1.67325 28.3287C-0.233599 23.5695 2.00975 21.7565 6.04777 21.3033C7.05728 21.1899 8.06678 21.3033 9.18845 21.3033C9.86146 19.037 10.871 16.9973 12.6656 15.4109C15.582 12.6914 19.0592 11.3316 22.8729 10.765C25.5649 10.3118 28.3691 9.97181 30.9489 9.17861C32.7436 8.61203 34.3139 7.47889 35.9964 6.68569C37.7911 5.77917 39.5858 4.75934 41.3805 3.85283C41.8291 3.6262 42.39 3.28625 42.6143 2.833C44.1847 -0.226494 46.6523 -0.793066 49.12 1.69985C50.3539 2.94631 51.812 2.71968 53.0459 2.37974C55.0649 1.92648 56.7474 2.60637 58.4299 3.39957C60.2246 4.30608 60.5611 5.66586 59.4394 7.25226C58.4299 8.61203 57.1961 9.97181 55.9622 11.2183C54.9527 12.3514 53.831 13.4846 52.7094 14.6177C50.9147 16.4307 49.12 18.1304 47.4375 19.9435C47.2132 20.1701 46.9888 20.6234 46.9888 20.9633C47.2132 23.003 46.9888 24.9293 46.0915 26.7423C45.755 27.3089 45.755 28.2154 45.8672 28.8953C46.3158 30.4817 46.7645 32.1814 47.4375 33.6545C48.3348 35.8075 50.6904 36.9406 52.9337 36.3741C54.504 35.9208 55.9622 35.4676 57.5326 35.1276C58.6542 34.7877 58.8786 35.2409 58.5421 36.8273Z" fill="black"/>
</svg>
 