<svg width="44" height="58" viewBox="0 0 44 58" fill="none" xmlns="http://www.w3.org/2000/svg">
<path d="M25.4642 16.3947C24.6468 15.6558 23.6404 15.1628 22.5592 14.9716C24.834 14.523 27.1734 14.523 29.4481 14.9716C27.4719 14.1843 25.3364 13.89 23.2232 14.1136C24.2897 13.6331 25.4237 13.3224 26.5847 13.1927H24.3852C26.9993 11.7076 30.0572 11.2245 32.9963 11.8324C34.4454 12.1687 35.7784 12.8915 36.8557 13.9252C37.827 14.8867 38.6333 16.0041 39.2419 17.2318C39.6984 18.1317 39.4702 18.5503 38.4327 18.5503C37.3952 18.5503 36.3577 18.5503 35.341 18.4247C34.7812 18.3934 34.2201 18.3934 33.6603 18.4247C32.9042 18.4537 32.1649 18.6574 31.4993 19.0203C30.8338 19.3832 30.2598 19.8954 29.8216 20.5175C29.7617 20.5784 29.7126 20.6492 29.6764 20.7268C29.4248 21.239 29.0591 21.6856 28.6079 22.0315C28.1567 22.3774 27.6322 22.6133 27.0756 22.7207C26.5189 22.8281 25.9452 22.8041 25.3992 22.6507C24.8533 22.4972 24.35 22.2184 23.9287 21.836C22.447 20.747 21.2505 19.3104 20.4428 17.6504C20.3009 17.3511 20.2503 17.016 20.2975 16.6877C20.2944 16.5568 20.3183 16.4267 20.3678 16.3057C20.4172 16.1846 20.4912 16.0753 20.5849 15.9847C20.6787 15.8941 20.7901 15.8243 20.9121 15.7795C21.0341 15.7348 21.164 15.7163 21.2935 15.725C22.6342 15.5905 23.9854 15.837 25.1944 16.4366L25.4642 16.3947Z" fill="black"/>
<path d="M42.8939 26.796C42.5412 27.6331 42.2092 28.554 41.7734 29.412C41.2926 30.3049 40.6189 31.0773 39.8022 31.6722C40.1405 29.6477 39.9051 27.5679 39.1232 25.6723C38.3413 23.7767 37.0447 22.1423 35.3825 20.9571C36.1382 22.5524 36.4536 24.3236 36.2955 26.0844C35.9829 27.8396 35.1762 29.467 33.9716 30.7723C33.8586 29.775 33.3679 28.8602 32.6021 28.2191C32.6333 28.7558 32.6333 29.2939 32.6021 29.8306C32.4991 30.375 32.2831 30.8914 31.9685 31.3458C31.6538 31.8002 31.2475 32.1825 30.7761 32.4675C29.8839 33.1163 28.9502 33.7022 28.0164 34.3091C26.5633 35.3502 25.3637 36.7106 24.5082 38.2876C23.6527 39.8647 23.1637 41.6172 23.078 43.4128L23.327 43.1198C24.1761 42.0095 25.2516 41.096 26.481 40.441C28.2304 39.5545 30.0661 38.8532 31.9589 38.3483C34.0338 37.7413 36.1088 37.1972 37.914 36.4019C41.6697 34.937 43.5786 31.8187 42.8939 26.796ZM29.6349 34.058C30.2159 33.6395 30.8384 33.2837 31.3779 32.8233C31.9174 32.3628 32.3323 31.8187 32.7888 31.3583C32.2493 32.886 30.7139 34.0999 27.9749 35.1881L29.6349 34.058ZM37.5197 35.523C35.5439 36.3011 33.5113 36.9238 31.4401 37.3856C29.8839 37.8041 28.3484 38.3483 26.8337 38.8924C26.2942 39.1017 25.817 39.4784 25.2567 39.7295C25.5057 39.4365 25.734 39.1226 25.983 38.8505C27.1978 37.5044 28.6555 36.4035 30.2781 35.6067C31.5231 34.9579 32.8303 34.351 34.0546 33.6604C35.5882 32.8823 36.7686 31.542 37.3538 29.9143C37.5405 29.3492 37.6442 28.7632 37.8102 28.0517C37.9165 28.9484 37.8143 29.8577 37.5118 30.7077C37.2093 31.5577 36.7147 32.325 36.0673 32.9488C35.1246 33.7208 34.1258 34.4204 33.0793 35.0416C32.3116 35.523 31.5024 35.8997 30.7139 36.3392C30.7139 36.3392 30.7139 36.3392 30.7139 36.4438L35.0298 35.0835L31.8759 36.4647C32.6228 36.3182 33.3698 36.2136 34.1168 36.0462C34.8638 35.8787 35.6523 35.6904 36.3993 35.4602C37.1463 35.23 37.8517 34.9579 38.6195 34.7696L37.5197 35.523Z" fill="black"/>
<path d="M15.463 38.3691L14.5292 37.6995C12.9647 36.6801 11.7254 35.2266 10.9603 33.5139L10.8358 33.3464C10.4336 34.6421 10.5148 36.0414 11.0641 37.2809C8.72034 36.5267 6.64376 35.1031 5.08592 33.1828C3.52808 31.2624 2.55583 28.9275 2.28696 26.4611C1.47773 31.2327 1.45698 35.795 5.06741 39.7923C4.01663 39.8764 2.96739 39.6118 2.07947 39.0388C1.1908 38.4973 0.471611 37.7139 0.00450581 36.7786C-0.00150194 36.8622 -0.00150194 36.9462 0.00450581 37.0298C0.146815 38.378 0.729648 39.6402 1.66125 40.6177C2.59285 41.5952 3.82032 42.2325 5.15041 42.4292C6.34072 42.5872 7.53956 42.671 8.74009 42.6803C10.5454 42.6932 12.3147 43.1917 13.8652 44.1243C14.6699 44.5825 15.3233 45.2692 15.7439 46.099C16.1645 46.9289 16.3338 47.8651 16.2307 48.7913V49.2726L16.6042 48.8331C17.3031 47.8812 17.8106 46.8006 18.0982 45.6521C18.4813 44.3132 18.4326 42.886 17.9589 41.5769C17.4852 40.2678 16.6111 39.1444 15.463 38.3691ZM16.8532 45.8823C16.7908 44.9437 16.3805 44.0631 15.7039 43.4156C15.0273 42.768 14.1339 42.401 13.2013 42.3873C11.1263 42.0525 9.05134 41.7804 6.97638 41.4665C6.76391 41.4381 6.55927 41.367 6.37464 41.2572L13.6993 41.613C12.8744 41.1412 11.9494 40.8757 11.0018 40.8387V40.6922L13.72 40.8805L13.2428 40.6294L10.0473 39.3318C8.37081 38.781 6.87741 37.7744 5.7314 36.4228L5.44091 36.0252C5.66915 36.2136 5.87665 36.381 6.06339 36.5693C7.42246 37.8451 9.06673 38.7713 10.8566 39.2691C11.8318 39.583 12.807 39.855 13.7615 40.2527C14.8563 40.6671 15.7689 41.4614 16.3355 42.4931C16.9021 43.5248 17.0856 44.7264 16.8532 45.8823ZM17.0192 42.4083C16.9481 42.2394 16.8925 42.0642 16.8532 41.8851C16.5303 40.69 15.7944 39.6508 14.7782 38.9551C13.6793 38.2937 12.7032 37.4438 11.894 36.4438L15.131 38.7249C15.6927 39.0574 16.1716 39.515 16.5313 40.0627C16.8909 40.6103 17.1216 41.2337 17.2059 41.8851C17.2162 41.9824 17.2162 42.0807 17.2059 42.178C17.2059 42.178 17.0814 42.3455 17.0192 42.4083Z" fill="black"/>
<path d="M26.0037 6.09819C24.2624 7.65824 22.6651 9.37439 21.2313 11.2255C21.584 10.0745 22.2272 7.73057 22.2065 7.70964L20.754 10.6814C20.6118 8.24892 20.8286 5.8086 21.3973 3.44033C21.8024 2.53945 22.4249 1.75527 23.2078 1.1594C23.9907 0.563517 24.9091 0.174916 25.8792 0.0290683C26.356 0.0162115 26.8226 0.169431 27.2005 0.462934C27.5785 0.756437 27.8446 1.1723 27.9541 1.64052C28.3276 3.29384 28.6804 3.60776 30.3611 3.73332C31.8029 3.66838 33.2357 3.99353 34.511 4.67508C35.0243 4.96719 35.4869 5.34184 35.8805 5.78427C36.0946 5.99109 36.2562 6.24685 36.3516 6.52995C36.447 6.81304 36.4734 7.11515 36.4287 7.41072C36.3839 7.7063 36.2692 7.98666 36.0944 8.22811C35.9195 8.46955 35.6896 8.66499 35.424 8.7979C34.566 9.3026 33.6109 9.61655 32.6228 9.71873C31.1288 9.90708 29.6141 10.0536 28.1201 10.2838C26.14 10.65 24.259 11.4346 22.6007 12.5859L22.0405 12.9416C23.172 11.3137 24.5764 9.89729 26.1904 8.75604C25.7132 8.96532 25.2152 9.15367 24.7587 9.40481C24.2641 9.6722 23.7922 9.98019 23.3477 10.3256C22.9268 10.6656 22.5251 11.0289 22.1442 11.4139C23.2803 9.53573 24.5713 7.75752 26.0037 6.09819Z" fill="black"/>
<path d="M16.6042 15.5995L14.2387 16.7715V16.8971L16.1477 16.1646V16.2902C14.6437 17.1115 13.508 18.4816 12.973 20.12C14.0338 18.2445 15.7865 16.8679 17.8492 16.2902C17.3554 16.6745 16.9681 17.1806 16.7246 17.7598C16.4811 18.339 16.3896 18.9716 16.4589 19.5968C16.6042 19.3038 16.6042 19.0945 16.6042 18.8643C16.7797 18.385 17.056 17.9498 17.4142 17.5885C17.7724 17.2272 18.2039 16.9485 18.6791 16.7715C18.9281 16.6459 19.0941 16.625 19.2186 16.9389C19.7839 18.2202 20.088 19.6029 20.1129 21.005C20.1379 22.4071 19.8832 23.8 19.3639 25.1008C19.1439 25.6704 18.7868 26.1757 18.3249 26.5713C17.863 26.967 17.3107 27.2404 16.7178 27.3671C16.125 27.4937 15.5102 27.4696 14.9289 27.2968C14.3476 27.1241 13.818 26.8081 13.388 26.3775L12.724 25.8333C12.1978 25.285 11.5141 24.9173 10.7694 24.7821C10.0248 24.6469 9.25685 24.7511 8.57409 25.0799C8.37451 25.1582 8.16492 25.2076 7.9516 25.2264C7.80997 25.2677 7.6609 25.2761 7.5156 25.2509C7.37031 25.2257 7.23257 25.1676 7.11274 25.081C6.99291 24.9944 6.89411 24.8815 6.82376 24.7508C6.75342 24.6201 6.71337 24.475 6.70662 24.3265C6.64645 23.8043 6.70317 23.2751 6.87262 22.7778C7.18895 21.945 7.6452 21.1733 8.22134 20.4967C10.1825 18.3342 12.6945 16.7561 15.4837 15.9344L16.6042 15.5786V15.5995Z" fill="black"/>
<path d="M15.712 12.6032L12.3298 11.6614C12.1015 11.6614 11.8733 11.6614 11.6658 11.6614C12.7403 12.0343 13.7932 12.4675 14.8197 12.959C12.8368 12.5686 10.8036 12.512 8.80235 12.7916V12.959C9.77758 12.959 10.8773 12.959 11.7695 12.959C12.7448 13.0663 13.7095 13.2553 14.6537 13.524C13.4392 13.5134 12.2341 13.7409 11.1056 14.1937C12.875 13.7978 14.7203 13.9287 16.4175 14.5704L15.795 14.696C13.8438 15.0421 11.9597 15.699 10.2133 16.6423C8.86459 17.3539 7.49512 18.0445 6.0634 18.7351C5.40024 18.9848 4.69616 19.1056 3.98844 19.0909C3.70708 19.1288 3.42085 19.1008 3.15198 19.009C2.8831 18.9172 2.63882 18.7642 2.43811 18.5617C2.23739 18.3593 2.08565 18.1129 1.99466 17.8417C1.90367 17.5705 1.87589 17.2819 1.91347 16.9981C1.91427 16.2966 2.08478 15.6058 2.41021 14.9859C2.73564 14.3659 3.20616 13.8353 3.78094 13.4403C4.26851 13.1036 4.72666 12.7256 5.15041 12.3102C5.62766 11.8079 5.60691 11.4731 5.15041 10.9499C4.69392 10.4267 4.59017 10.0709 5.29566 9.56864C5.87159 9.14611 6.5323 8.85594 7.23133 8.71855C7.93036 8.58116 8.65074 8.59987 9.34184 8.77338C10.6884 9.09785 11.9578 9.68823 13.0768 10.5104C13.9897 11.1801 14.8405 11.8916 15.712 12.6032Z" fill="black"/>
<path d="M19.3432 11.2046C18.7829 9.61411 17.7039 6.66326 17.6624 6.68419L18.6792 10.6186C18.2019 9.63503 17.7869 8.52585 17.2474 7.6678C16.6826 6.70375 16.0516 5.78067 15.3592 4.90531C16.3994 6.65424 17.2085 8.53273 17.7662 10.4931C17.1169 9.43512 16.2369 8.54044 15.1932 7.87708C16.5417 9.16914 17.5353 10.7914 18.0774 12.5859L17.6832 12.251C15.6094 10.0639 13.0487 8.40663 10.2133 7.41667C9.54735 7.15096 8.90811 6.82159 8.30436 6.43305C8.04435 6.30252 7.82285 6.10547 7.66198 5.86158C7.50111 5.61768 7.4065 5.33549 7.3876 5.04318C7.3687 4.75087 7.42617 4.45867 7.55427 4.19577C7.68237 3.93287 7.87662 3.70847 8.11761 3.54499C8.57653 3.10174 9.12725 2.76671 9.73005 2.56405C10.3329 2.36139 10.9727 2.29614 11.6035 2.37302H12.4958C12.736 2.39546 12.9781 2.35968 13.2019 2.26868C13.4257 2.17767 13.6246 2.03407 13.7823 1.84982C14.0389 1.42341 14.4013 1.0719 14.8339 0.830009C15.2664 0.588122 15.754 0.464228 16.2485 0.470569C16.743 0.476909 17.2273 0.613263 17.6536 0.866162C18.0799 1.11906 18.4334 1.47975 18.6792 1.91261C19.3361 2.73522 19.7464 3.72993 19.8619 4.77974C19.9983 6.93541 19.8235 9.09962 19.3432 11.2046Z" fill="black"/>
<path d="M6.10483 56.9533C7.32906 56.3882 8.53253 55.9069 9.67376 55.3209C14.918 52.5374 18.9164 47.8463 20.8578 42.1991C23.372 35.3613 23.4673 27.8576 21.1276 20.9571C21.0751 20.7725 21.0751 20.5767 21.1276 20.3921C21.4803 21.2711 21.8745 22.1291 22.1858 23.0081C24.707 29.8537 24.6257 37.3985 21.9575 44.1872C20.2695 48.6925 17.9344 52.9233 15.0272 56.744C14.9613 56.8676 14.855 56.9643 14.7263 57.0177C14.5977 57.0711 14.4547 57.0779 14.3217 57.037C11.8264 56.6394 9.28479 56.6394 6.78957 57.037L6.10483 56.9533Z" fill="black"/>
<path d="M34.5111 51.7841C33.3182 51.7362 32.1739 51.2951 31.2534 50.5284L29.5104 49.3146L29.1992 49.0635C29.7946 49.1276 30.3967 49.0555 30.9607 48.8526C31.5247 48.6497 32.0361 48.3212 32.4568 47.8915C31.7398 48.1188 30.9749 48.1454 30.244 47.9685C29.5131 47.7916 28.8436 47.4177 28.3069 46.8869L27.4977 46.301C26.8435 45.7884 26.0635 45.465 25.241 45.3655C24.4186 45.266 23.5848 45.394 22.829 45.7359C21.999 46.0498 21.999 46.0289 22.1028 46.9288C22.1965 48.3008 22.569 49.6386 23.1973 50.8591C23.8255 52.0796 24.6961 53.1567 25.7547 54.0234L26.1697 54.3164C25.5136 53.2746 25.0823 52.1052 24.904 50.8842H25.07C25.9104 51.79 26.9865 52.4391 28.1753 52.7573C29.3641 53.0756 30.6177 53.0502 31.7929 52.684C32.7058 52.4538 33.5773 52.1399 34.4903 51.8678C34.5318 51.8887 34.5111 51.8259 34.5111 51.7841ZM23.0573 47.8287C23.5138 49.0844 23.9703 50.361 24.406 51.6376C23.5379 50.5608 23.0618 49.2165 23.0573 47.8287ZM22.8498 46.3847C24.1358 46.5835 25.3383 47.15 26.315 48.0171L29.0539 50.361C28.3069 50.2563 26.7714 49.3774 22.829 46.3847H22.8498Z" fill="black"/>
<path d="M21.3597 15.5659C21.7589 15.7272 22.1406 15.9295 22.4987 16.1695C22.6678 16.3105 22.7806 16.5085 22.8161 16.7269C22.8516 16.9452 22.8074 17.1692 22.6918 17.3572C22.4392 17.7308 22.0892 18.0267 21.6804 18.2122C21.2716 18.3978 20.8199 18.4657 20.3752 18.4087C20.1372 18.36 19.9188 18.2417 19.7471 18.0686C19.5755 17.8954 19.4582 17.6751 19.4099 17.4351C19.3599 17.214 19.3795 16.9826 19.466 16.7732C19.5525 16.5637 19.7016 16.3868 19.8925 16.2669C20.3691 16.0074 20.8588 15.7735 21.3597 15.5659Z" fill="black"/>
</svg>
