<svg width="31" height="66" viewBox="0 0 31 66" fill="none" xmlns="http://www.w3.org/2000/svg">
<path d="M30.9967 43.8595C30.8333 43.4423 30.6278 43.0423 30.3832 42.6654C29.9124 42.0317 29.3837 41.4415 28.8038 40.9022C27.2011 39.6553 25.9916 37.9875 25.3155 36.0924C24.8042 37.2084 24.3611 38.1681 23.8611 39.139C23.4748 39.8867 22.9862 40.5897 22.5885 41.3709C22.4038 41.72 22.2809 42.0973 22.2249 42.4868C22.1454 43.268 22.1454 44.0603 22.0886 44.8415C22.0614 45.3893 22.1815 45.9345 22.4368 46.4222C22.6921 46.91 23.0736 47.3232 23.543 47.6202C23.985 47.9477 24.4611 48.2283 24.9633 48.4572C25.6849 48.7301 26.2968 49.226 26.7066 49.8701C27.1165 50.5141 27.3022 51.2715 27.2358 52.0283C27.2358 52.8764 27.0085 53.7133 27.0312 54.5503C27.0312 55.6663 27.2244 56.7822 27.3153 57.6303C26.8009 56.5436 26.593 55.3412 26.7131 54.1486C26.7585 53.3271 26.7585 52.5038 26.7131 51.6823C26.7008 51.1323 26.5149 50.5996 26.1811 50.1578C25.8473 49.7161 25.3821 49.387 24.8497 49.2161C24.3952 49.0263 23.952 48.8032 23.5089 48.5688C22.7705 48.2217 22.1447 47.6801 21.7013 47.0043C21.258 46.3284 21.0144 45.5449 20.9978 44.7411C20.9978 44.5402 20.9978 44.3393 20.9978 44.1273L20.9183 44.0715C19.9609 45.5068 19.2292 47.0756 18.748 48.725C18.2357 50.6213 18.135 52.6022 18.4526 54.5392C18.5204 54.953 18.7055 55.3398 18.9866 55.6551C19.5814 56.3176 20.2354 56.9264 20.941 57.4741C21.4286 57.8254 21.8234 58.2864 22.0923 58.8184C22.3611 59.3504 22.4962 59.938 22.4863 60.5318C22.4863 61.6478 22.4067 62.7637 22.3726 63.9578C22.3875 64.3559 22.3454 64.7541 22.2477 65.1407C22.2477 64.2591 22.2477 63.3664 22.1681 62.4847C22.1484 61.5711 22.0534 60.6604 21.8841 59.7618C21.73 59.2234 21.4225 58.7394 20.9978 58.3669C20.2743 57.7554 19.5155 57.1853 18.7253 56.6595C19.4184 59.8288 20.4865 62.8865 19.0889 66C19.4468 63.6493 19.0663 61.2473 17.9981 59.1146C17.2595 57.2956 16.6346 55.4208 15.9983 53.6464C15.847 55.3854 15.21 57.0498 14.1576 58.4562C13.5077 59.6315 13.1386 60.9366 13.0782 62.2727C12.9783 61.0602 13.1811 59.8421 13.669 58.724C13.9304 58.099 14.2599 57.5076 14.5666 56.905C15.0821 55.9123 15.3581 54.8164 15.3734 53.7022C15.3316 52.559 15.3695 51.4143 15.487 50.2762C15.7467 47.5984 16.3854 44.9691 17.3845 42.4645C17.3845 42.4645 17.3845 42.3976 17.3845 42.3195C15.6092 43.9069 14.2158 45.8624 13.3054 48.0443C12.7146 49.7406 11.9647 51.3922 11.2602 53.0438C11.1064 53.3518 10.8944 53.6283 10.6352 53.8584C11.5888 52.1867 12.2314 50.3615 12.5328 48.4684C13.1574 46.2223 14.3271 44.1584 15.9415 42.4534C16.771 41.4713 17.5777 40.4781 18.4185 39.5073C19.2096 38.4433 19.7491 37.2196 19.9979 35.925C20.6647 33.9086 20.6647 31.7367 19.9979 29.7203L19.7252 29.0619C18.873 29.698 18.0549 30.3118 17.2255 30.9144C16.9129 31.2688 16.702 31.6984 16.6141 32.1592C16.5263 32.62 16.5647 33.0955 16.7255 33.5369C16.8619 33.9052 16.9982 34.2734 17.1118 34.6528C17.1237 34.7492 17.1237 34.8466 17.1118 34.943C16.6005 33.827 15.8392 32.8004 16.3506 31.5059L16.2369 31.4054C15.5211 31.7514 14.7712 32.0527 14.0894 32.4433C13.2361 32.9143 12.5805 33.6674 12.2393 34.5685C11.8981 35.4696 11.8934 36.4604 12.226 37.3646C12.3851 38.0007 12.5669 38.6256 12.7487 39.3064C11.2488 37.253 10.4875 34.5636 11.7715 32.5549C12.4919 31.5749 13.3986 30.7412 14.4417 30.0998C15.1545 29.6251 15.8306 29.0992 16.4642 28.5263C16.9876 27.9386 17.2854 27.1898 17.3062 26.4093C17.3269 25.6289 17.0693 24.8658 16.5778 24.2522C15.6688 23.1362 14.8621 21.9533 14.0099 20.8039C13.8735 20.6253 13.7599 20.4356 13.6008 20.2236C12.8964 21.3395 12.2828 22.355 11.5556 23.3259C11.1815 23.8072 10.9237 24.3657 10.8017 24.9592C10.6796 25.5527 10.6965 26.1657 10.8511 26.7519C10.995 27.1763 11.1775 27.5872 11.3965 27.9794C11.6262 28.4257 11.8311 28.8839 12.0101 29.3521C11.2829 28.2361 10.1012 27.321 9.91941 25.848H9.72625C9.2204 26.7355 8.7615 27.6481 8.35139 28.5821C7.68784 30.0502 7.44919 31.6696 7.66167 33.2623C7.87415 34.8551 8.52954 36.3594 9.55581 37.6101C10.9282 39.37 11.6062 41.5579 11.4647 43.7702C11.4647 44.5737 11.3511 45.3772 11.2488 46.1807C11.2488 43.4577 11.2488 40.7236 9.30584 38.6145C9.38538 40.0206 9.5899 41.5048 9.56717 43.0002C9.50846 45.4071 8.84073 47.7619 7.6242 49.8521C6.95916 50.8424 6.63279 52.0152 6.69248 53.2H6.54477C6.47628 52.6291 6.47628 52.0523 6.54477 51.4814C6.82883 50.3655 7.28332 49.3165 7.59011 48.2117C8.57865 44.9958 8.34033 41.5364 6.91973 38.4806C6.41978 37.3646 5.96528 36.3268 5.46533 35.1885C4.32909 36.974 3.26102 38.7038 3.52236 40.9134C3.69609 42.1936 3.79095 43.483 3.80642 44.7746C3.76722 45.5659 3.64538 46.3512 3.44282 47.1181C3.26026 47.8733 3.03647 48.6183 2.77244 49.35C2.79182 48.7867 2.86409 48.2263 2.98832 47.676C3.49161 46.0512 3.53091 44.3218 3.10195 42.6766C2.67956 41.3027 2.5824 39.8523 2.81789 38.4359C3.13674 37.3603 3.54331 36.3116 4.03367 35.3001C4.61802 34.2012 4.88521 32.9663 4.80631 31.729C4.61735 29.7071 4.92921 27.6702 5.71531 25.7922C4.12457 26.5957 2.30658 26.5064 1.06807 27.8567C0.681746 28.3031 0.386323 28.8276 0 29.3744C0.143002 28.7128 0.437216 28.0917 0.86042 27.5581C1.28362 27.0246 1.82475 26.5924 2.44292 26.2944C2.95423 26.0377 3.49963 25.8368 4.0223 25.6136C5.32528 25.0802 6.39812 24.1173 7.05608 22.8907C7.97265 21.1721 8.8324 19.4201 9.63535 17.6345C10.1126 16.7083 10.3512 15.5924 10.7148 14.4764C9.01042 14.8781 7.9878 15.7374 7.81736 17.3779C7.66374 18.6083 7.08642 19.7502 6.18117 20.6141L6.40842 20.1566C6.48517 20.0261 6.5686 19.8994 6.65839 19.7772C7.13225 19.0912 7.3928 18.2848 7.40831 17.456C7.48116 16.829 7.59118 16.2067 7.73782 15.5924C6.21283 15.9474 4.8789 16.8514 3.99958 18.1256C3.10195 19.5317 3.3292 21.1275 3.03377 22.6452H2.89742C2.80644 21.4006 2.80644 20.1513 2.89742 18.9067C3.03325 18.0489 3.37103 17.234 3.88389 16.5269C4.39675 15.8197 5.07053 15.2399 5.85166 14.8335L10.5557 12.1441C10.6916 12.0654 10.8015 11.9498 10.8721 11.8112C10.9426 11.6726 10.9709 11.5169 10.9534 11.3629C11.0443 9.33185 11.0784 7.30081 11.3056 5.2921C11.3685 4.37378 11.7189 3.497 12.3087 2.78181C12.8986 2.06663 13.6991 1.54801 14.6007 1.29698C14.7456 1.25549 14.873 1.16943 14.9643 1.05147C15.1703 0.656006 15.5088 0.342386 15.9227 0.163494C16.3367 -0.0153986 16.8008 -0.0486205 17.2368 0.0694299C17.3313 0.0784624 17.4264 0.0784624 17.5209 0.0694299L17.8163 0.169866C18.9526 0.638566 19.7934 1.28582 19.5888 2.53569L17.7936 2.34598C17.7936 2.34598 17.7936 2.42409 17.7936 2.45757C18.296 2.57017 18.8043 2.65585 19.3161 2.71424C19.5147 2.7196 19.7084 2.77601 19.8779 2.87783C20.0474 2.97965 20.1867 3.12333 20.282 3.29454C20.6813 3.86894 20.9491 4.52158 21.0668 5.20745C21.1845 5.89332 21.1493 6.5961 20.9637 7.26733C20.691 8.38329 20.4524 9.42113 20.2592 10.5148C20.2325 10.6823 20.2398 10.8533 20.2807 11.0181C20.3217 11.1828 20.3955 11.3379 20.4978 11.4745C21.1523 12.1288 21.8632 12.7262 22.6226 13.26C24.0544 14.0882 25.1169 15.4146 25.5996 16.9761C25.75 17.6506 25.8262 18.339 25.8268 19.0295C25.8167 19.1956 25.8513 19.3615 25.9271 19.5103C26.0029 19.6592 26.1172 19.7859 26.2586 19.8776C26.6372 20.0686 26.9419 20.3758 27.1265 20.7525C27.311 21.1292 27.3654 21.5547 27.2812 21.9644C27.255 22.2651 27.2942 22.5679 27.396 22.8526C27.4979 23.1373 27.6601 23.3975 27.8721 23.6161C28.1869 23.9728 28.4827 24.3452 28.7583 24.732C27.8039 23.8839 26.7699 23.1027 26.8949 21.6185C26.9517 20.9378 26.6904 20.6699 25.8382 20.257C25.5502 21.0066 25.5222 21.8285 25.7584 22.5952C25.9947 23.362 26.4821 24.0307 27.1449 24.4977C27.5665 24.826 27.9166 25.2343 28.1743 25.6982C28.432 26.1622 28.5919 26.6723 28.6447 27.1983C28.6959 28.1611 28.6959 29.1258 28.6447 30.0886H28.4402C28.3834 29.3409 28.372 28.6044 28.2811 27.8567C28.2368 27.2542 28.0427 26.6716 27.7158 26.1599C27.389 25.6482 26.9393 25.2231 26.4063 24.9217C25.8332 24.6099 25.3545 24.1543 25.0192 23.6014C24.6838 23.0486 24.5038 22.4182 24.4974 21.7747C24.4179 20.603 24.4292 19.4089 24.2474 18.2483C24.0644 17.5732 23.8012 16.9215 23.4634 16.3066H23.1794L22.8726 18.8509H22.759C22.7171 18.1373 22.7171 17.4219 22.759 16.7083C22.8385 15.5924 22.8726 15.5924 21.9181 15.0679C21.3728 14.7554 20.7819 14.4764 20.1115 14.097C20.1941 14.6048 20.3195 15.105 20.4865 15.5924C21.2364 17.1993 21.9863 18.7951 22.759 20.3575C23.8833 22.3624 24.8152 24.4658 25.5428 26.6403C26.1416 28.783 26.2961 31.022 25.9973 33.2244C25.9486 33.9245 26.006 34.6278 26.1677 35.3113C26.4875 37.0417 27.3263 38.6388 28.5765 39.8978C29.5499 40.7965 30.3236 41.8831 30.849 43.0895C30.9631 43.3299 31.0139 43.5947 30.9967 43.8595Z" fill="black"/>
</svg>
