<svg width="73" height="64" viewBox="0 0 73 64" fill="none" xmlns="http://www.w3.org/2000/svg">
<path d="M9.55361 28.0399L9.91812 28.3644C10.511 28.8851 11.1198 29.3818 11.6967 29.9306C12.7782 30.9841 12.8984 32.334 12.7902 33.7961C12.5819 33.732 12.4257 33.6879 12.2775 33.6359C10.5911 33.007 8.90869 32.3741 7.21828 31.7532C7.10439 31.7238 7.00305 31.6585 6.9294 31.5668C6.85576 31.4751 6.81376 31.362 6.8097 31.2445C6.62143 30.1148 6.15276 29.1294 5.08724 28.5526C4.88441 28.4548 4.65817 28.4159 4.43431 28.4405C5.77222 29.0053 6.33302 30.0788 6.60541 31.5249L0 28.9211V28.7729C1.27381 28.4725 2.54362 28.136 3.82545 27.8717C6.8655 27.2312 9.97649 26.9929 13.0786 27.1626C16.3112 27.3469 18.8028 28.7649 20.7776 31.2605C21.6909 32.4101 22.5882 33.5758 23.5255 34.7054C23.8951 35.1521 24.3144 35.5553 24.7753 35.9071C24.8865 36.0075 25.0168 36.0845 25.1583 36.1335C25.2999 36.1825 25.4499 36.2026 25.5993 36.1925C25.7488 36.1824 25.8947 36.1424 26.0284 36.0748C26.1621 36.0072 26.2808 35.9134 26.3776 35.7989C26.8823 35.3223 27.0065 34.7935 26.5698 34.1967C26.0752 33.5178 25.5084 32.8946 24.8794 32.338C23.7378 31.3406 22.5681 30.3632 21.3384 29.4739C18.1779 27.1867 16.5315 24.0182 15.6703 20.3009C14.6967 15.708 14.2931 11.0126 14.4686 6.32096C14.4808 6.24561 14.5009 6.17176 14.5287 6.10065C16.9564 8.90005 19.1269 11.9125 21.0139 15.1015C18.7547 15.1776 17.585 13.4511 16.0789 12.3215L15.9788 12.4176C16.0565 12.5388 16.145 12.6528 16.2431 12.7581C16.8119 13.2588 17.3888 13.7515 17.9616 14.2483C18.7659 14.9472 19.7814 15.3562 20.8457 15.4099C20.9375 15.4184 21.0264 15.4464 21.1065 15.492C21.1866 15.5376 21.2561 15.5997 21.3103 15.6743C22.0764 17.0065 22.6432 18.4438 22.9927 19.9404C22.9982 20.0337 22.9982 20.1274 22.9927 20.2208C21.791 20.1366 20.5613 20.0926 19.6079 19.2634C18.7227 18.5023 17.9055 17.6611 16.9762 16.912C17.0323 17.031 17.1008 17.1438 17.1805 17.2485C17.7933 17.8934 18.4062 18.5384 19.0431 19.1592C20.0686 20.1607 21.3825 20.397 22.7404 20.4691C22.853 20.455 22.9668 20.4844 23.0584 20.5514C23.15 20.6185 23.2125 20.718 23.2331 20.8296C23.8139 22.512 24.4348 24.1904 25.0196 25.8688C25.0397 25.9249 25.0517 25.989 25.0877 26.1132C23.886 26.1572 22.6843 26.1772 21.7029 25.4442C20.7696 24.7632 19.8963 24.0021 18.927 23.3172C18.9661 23.421 19.023 23.5173 19.0952 23.6016C19.8963 24.2865 20.6975 24.9956 21.4986 25.6365C22.44 26.3575 23.5856 26.4376 24.7032 26.3976C24.8685 26.3756 25.0362 26.4137 25.1758 26.5048C25.3155 26.5959 25.4178 26.7341 25.4643 26.8943C27.1088 30.3703 29.3452 33.5338 32.0737 36.2436C33.6079 37.8178 34.8777 39.6564 36.2596 41.3789C36.3534 41.5078 36.4403 41.6415 36.52 41.7795C35.3744 41.3789 34.3289 40.9783 33.2714 40.6218C29.0654 39.2225 24.8554 37.8232 20.6414 36.4238C20.3049 36.3157 20.1247 36.1915 20.0966 35.8029C20.0566 35.2261 19.9164 34.6613 19.8322 34.0885C19.7745 33.6731 19.627 33.2752 19.4002 32.9224C19.1733 32.5697 18.8724 32.2705 18.5184 32.0456C18.0096 31.7051 17.4769 31.4127 16.9441 31.1123C16.7894 31.0456 16.6283 30.9946 16.4634 30.9601C17.3767 31.649 18.3501 32.1938 19.0672 32.9629C19.7842 33.732 19.68 35.0298 19.9043 36.1915C18.927 35.8871 18.0617 35.6267 17.2005 35.3423C15.9347 34.9417 14.6729 34.4771 13.4031 34.0525C13.1788 33.9763 13.0466 33.8962 13.0746 33.6078C13.1896 32.7425 13.0712 31.8621 12.7317 31.0578C12.3923 30.2536 11.8441 29.5546 11.1439 29.0333C10.6592 28.6327 10.1785 28.2602 9.69781 27.8757L9.55361 28.0399Z" fill="black"/>
<path d="M37.3612 41.439C37.4293 38.8714 37.4974 36.3958 37.5655 33.9203C37.5976 32.7186 37.6096 31.5169 37.6737 30.3152C37.6922 30.0496 37.8077 29.8002 37.9981 29.6142C39.8928 28.052 40.682 26.0331 40.5698 23.6056C40.5673 23.4104 40.5089 23.2199 40.4016 23.0568C40.4296 25.5684 39.9369 27.8356 37.7017 29.4179C37.7017 28.9252 37.7017 28.4445 37.7017 27.9678C37.7418 25.965 37.7898 23.9381 37.8259 21.9272C37.8109 21.7751 37.8351 21.6216 37.896 21.4814C37.957 21.3412 38.0529 21.2189 38.1744 21.1261C40.2493 19.64 41.2388 17.4769 41.9157 15.1175C41.9695 14.9646 41.9695 14.7978 41.9157 14.6449C41.0264 17.0483 40.3134 19.5118 37.886 20.9218V19.5158C37.886 18.262 37.886 17.0082 37.886 15.7504C37.9119 15.5178 38.0052 15.2979 38.1544 15.1175C38.3666 14.8646 38.6012 14.6313 38.8554 14.4205C40.0571 13.347 40.4576 11.929 40.6299 10.4148C40.6335 10.3591 40.6253 10.3032 40.606 10.2508C40.5867 10.1983 40.5566 10.1505 40.5177 10.1104C40.2694 11.0117 40.1452 11.9771 39.7166 12.7982C39.288 13.6194 38.611 14.2763 37.9701 15.0935C37.4814 9.9021 37.0087 4.915 36.5441 0C36.9727 0.564804 37.4734 1.22975 37.9821 1.88669C39.5608 3.98575 40.9041 6.25189 41.9878 8.64431C43.8304 12.5899 43.9386 16.6557 42.9933 20.8377C42.3531 23.694 41.2963 26.4406 39.8568 28.9893C39.3216 29.7945 39.0994 30.7675 39.2319 31.7252C39.4242 32.7466 40.0851 33.0431 40.9584 32.4662C41.7825 31.9812 42.3847 31.1936 42.6367 30.2711C42.9812 28.8291 43.2456 27.363 43.514 25.9049C44.0027 23.2451 44.8038 20.6975 46.4301 18.5104C47.5677 17.0022 48.9501 15.6956 50.52 14.6449C52.5228 13.2749 54.5737 11.9931 56.6367 10.7233C57.7262 10.0503 58.8839 9.4775 60.0135 8.86462C60.1216 8.80454 60.2378 8.75647 60.354 8.7044L60.4862 8.81255L53.3921 20.8297C52.1062 18.6826 52.1663 16.6036 52.9474 14.4606L52.7672 14.4326C52.6842 14.5731 52.6106 14.719 52.5469 14.8692C52.1998 15.7929 52.0559 16.7806 52.1251 17.7649C52.1942 18.7493 52.4747 19.7071 52.9474 20.5733C53.0372 20.7058 53.0801 20.8646 53.0692 21.0243C53.0583 21.184 52.9943 21.3355 52.8873 21.4546C51.91 22.8245 50.9526 24.2105 49.9832 25.5884C49.8831 25.7326 49.7629 25.8648 49.6067 26.0571C48.7695 23.2932 49.2061 20.6654 50.1034 18.0657L49.9472 18.0177C49.8725 18.1206 49.8081 18.2306 49.7549 18.3461C48.8776 20.8657 48.5532 23.4173 49.3062 26.0331C49.3298 26.1142 49.3369 26.1992 49.3273 26.2831C49.3177 26.367 49.2914 26.4481 49.2502 26.5218C48.4771 27.4831 47.6759 28.4245 46.8467 29.4339C46.2379 27.4952 45.8974 25.6565 47.0751 23.8259L46.8507 23.7739C46.7621 23.8876 46.6805 24.0066 46.6064 24.1304C46.0148 25.2535 45.8538 26.5541 46.1538 27.7876C46.2819 28.3163 46.4181 28.8451 46.5223 29.3899C46.555 29.555 46.525 29.7263 46.4382 29.8705C43.4846 33.684 40.5271 37.4894 37.5655 41.2868C37.5009 41.3421 37.4327 41.3929 37.3612 41.439Z" fill="black"/>
<path d="M58.7116 20.0966C57.6982 20.8978 56.8009 21.6989 55.8275 22.3639C54.794 23.0809 53.5482 23.0328 52.3826 23.165C55.0464 18.7587 57.7022 14.3524 60.394 9.91412C60.3139 10.7393 60.2458 11.5164 60.1576 12.2895C59.8278 15.1767 59.3208 18.0408 58.6395 20.8657C57.7371 24.7746 55.3458 28.1776 51.974 30.3512C50.4438 31.3847 48.8375 32.306 47.2352 33.2233C46.2939 33.7502 45.5395 34.5564 45.0762 35.5306C44.9795 35.7229 44.9017 35.9241 44.8438 36.1315C44.6876 36.7123 44.956 37.0287 45.5368 36.8925C46.6791 36.6617 47.7241 36.0889 48.5331 35.2502C49.119 34.5779 49.6647 33.8717 50.1674 33.1352C52.9714 29.2096 56.8129 26.9744 61.5476 26.1533C65.0444 25.5363 68.5844 25.1961 72.1347 25.1358C72.2108 25.1358 72.2869 25.1358 72.3831 25.1358C71.5218 26.1693 63.9711 31.7652 62.7053 32.31C62.4329 30.3072 63.234 28.6648 64.5279 27.1907L64.3837 27.0906C64.2671 27.1769 64.1573 27.2719 64.0552 27.375C63.4554 28.0284 62.9987 28.7999 62.7145 29.6401C62.4303 30.4803 62.3248 31.3706 62.4048 32.2539C62.4076 32.3289 62.3939 32.4036 62.3649 32.4728C62.3358 32.5419 62.2921 32.604 62.2366 32.6545C59.8051 34.1927 57.3056 35.6027 54.5497 36.492C54.4737 36.4997 54.3973 36.4997 54.3213 36.492C54.774 35.09 55.0664 33.6599 55.8956 32.4542C56.7248 31.2485 58.0146 30.5796 59.1883 29.7784L59.1082 29.6462C58.9796 29.6799 58.8557 29.7297 58.7396 29.7944C57.9826 30.3272 57.2175 30.8439 56.4924 31.3967C55.7549 32.0185 55.2159 32.843 54.9422 33.7681C54.6578 34.5973 54.4095 35.4345 54.105 36.2556C54.0618 36.3611 53.9976 36.4566 53.9164 36.5365C53.8351 36.6164 53.7385 36.6789 53.6324 36.7203C52.1743 37.1209 50.6922 37.4734 49.2261 37.922C47.9889 38.2669 46.7731 38.6842 45.5849 39.1718C43.0089 40.2322 40.3693 41.1312 37.6816 41.8636C37.7375 41.7498 37.799 41.6388 37.8659 41.5312C40.5791 38.0435 43.2856 34.5479 45.9855 31.0442C46.0801 30.9195 46.2008 30.8169 46.3392 30.7435C46.4776 30.6702 46.6302 30.6279 46.7866 30.6196C49.2431 30.3056 51.5594 29.2982 53.4641 27.7155C53.5954 27.6161 53.6887 27.4747 53.7285 27.3149C51.6805 28.9881 49.2024 30.0502 46.5783 30.3793C47.063 29.8145 47.4916 29.3418 47.8842 28.8411C49.19 27.1827 50.4919 25.5163 51.7737 23.838C51.8568 23.7108 51.9712 23.6072 52.1059 23.537C52.2405 23.4669 52.391 23.4326 52.5428 23.4374C52.8673 23.4374 53.1957 23.3693 53.5282 23.3493C55.7474 23.2371 57.2175 21.8271 58.6635 20.381C58.6795 20.325 58.6715 20.2649 58.7116 20.0966Z" fill="black"/>
<path d="M35.9912 0.0400254C36.3077 2.76791 36.6242 5.4998 36.9526 8.35987C36.1274 7.97933 35.3503 7.64686 34.9498 6.93384C34.5923 6.16899 34.2911 5.37911 34.0485 4.57048C34.0064 4.76007 33.9823 4.95319 33.9764 5.1473C34.0421 5.86861 34.309 6.557 34.7466 7.13414C35.1842 7.71128 35.7751 8.15401 36.4519 8.41195C36.6273 8.46767 36.7792 8.58019 36.8837 8.73177C36.9881 8.88334 37.0391 9.06536 37.0287 9.24914C37.1609 12.3095 37.3091 15.3699 37.4293 18.4302C37.4349 18.4969 37.4349 18.5639 37.4293 18.6305C34.4971 17.601 33.72 14.9813 32.8908 12.4177L32.7306 12.4697C32.7253 12.6111 32.7388 12.7525 32.7707 12.8903C33.1993 13.9759 33.6199 15.0694 34.0885 16.143C34.6493 17.4408 35.819 18.1058 36.9726 18.7507C37.1336 18.8192 37.2678 18.9385 37.3546 19.0904C37.4414 19.2423 37.476 19.4184 37.4533 19.5919C37.4253 21.0259 37.4533 22.46 37.4533 23.926C34.8576 23.217 33.9804 21.0379 32.9469 18.999L32.7947 19.0952C32.8268 19.2419 32.8724 19.3854 32.9309 19.5238C33.3315 20.2688 33.732 21.0059 34.1326 21.7469C34.7615 22.9206 35.8631 23.5335 36.9927 24.0943C37.1206 24.1424 37.228 24.2333 37.2966 24.3516C37.3653 24.4699 37.3909 24.6082 37.3692 24.7432C37.3692 25.7486 37.3692 26.7461 37.3692 27.8476C35.6508 27.1987 34.3089 26.2814 33.5117 24.6671L33.3515 24.7913C33.397 24.9418 33.456 25.0879 33.5277 25.2279C34.0829 26.2516 34.9743 27.0523 36.0513 27.4951C37.1209 27.8957 37.3372 28.5286 37.2891 29.6101C37.1128 33.3394 37.0608 37.0728 36.9606 40.8021C36.9606 41.0104 36.9366 41.2026 36.9166 41.487C36.0553 40.3654 35.2903 39.2719 34.425 38.2825C32.995 36.6201 31.4848 35.0218 30.0187 33.3715C29.4579 32.7306 28.9692 32.0256 28.4846 31.3927L30.1349 29.9626C30.223 30.2911 30.3031 30.6837 30.4313 31.0602C30.5448 31.4039 30.6952 31.7343 30.88 32.0456C30.9927 32.2794 31.1824 32.4675 31.4171 32.5783C31.6519 32.6891 31.9176 32.716 32.1698 32.6545C32.4279 32.6127 32.6619 32.4781 32.8279 32.276C32.9938 32.0739 33.0803 31.8182 33.0711 31.5569C33.1196 30.9162 33.0792 30.2718 32.9509 29.6422C32.4462 27.395 31.8333 25.1798 31.2845 22.9527C30.6797 20.5092 30.219 18.0256 30.4433 15.506C30.5982 13.6117 30.9884 11.744 31.605 9.94613C32.1177 8.48405 32.5984 7.00995 33.1792 5.57591C33.676 4.3742 34.2848 3.17249 34.8536 1.99481C35.1741 1.32986 35.5146 0.676932 35.843 0.0159912L35.9912 0.0400254Z" fill="black"/>
<path d="M13.0626 43.9907C13.9198 44.2028 14.7584 44.4841 15.5701 44.8319C16.3254 45.296 17.0432 45.8184 17.7172 46.3942L17.6932 46.5504C17.0162 46.7667 16.3472 47.0271 15.6583 47.1873C14.2923 47.5077 12.9224 47.8202 11.5364 48.0285C11.1009 48.0146 10.6807 47.8647 10.3347 47.5999C9.79791 47.2674 9.3012 46.8789 8.63225 46.8829C8.44946 46.8988 8.26762 46.9242 8.08747 46.959L10.7032 48.0405L10.6752 48.2248L5.75615 49.3063L5.68004 49.2262C6.18476 48.5973 6.66144 47.9364 7.20621 47.3395C7.88519 46.5764 8.60599 45.8516 9.36529 45.1684C10.9115 43.8105 12.5699 42.6248 14.5727 42.0279C16.0112 41.6597 17.5068 41.57 18.979 41.7636C19.716 41.8317 20.4611 41.8477 21.1941 41.9398C22.6041 42.1161 23.9981 42.3404 25.4081 42.5206C25.7855 42.5673 26.1664 42.578 26.5458 42.5527C26.9463 42.5247 27.3469 42.4045 27.435 41.9198C27.5139 41.6812 27.5089 41.4228 27.4207 41.1874C27.3326 40.9521 27.1666 40.754 26.9503 40.6259C26.6234 40.4332 26.2556 40.3207 25.8768 40.2975C24.3626 40.2975 22.8445 40.3656 21.3303 40.4417C19.0711 40.5498 16.8199 40.7541 14.5567 40.4857C11.7006 40.1453 9.28518 38.8474 7.08204 37.0929C4.52684 34.9981 2.30263 32.5295 0.484642 29.7705C0.460607 29.7304 0.444584 29.6824 0.380493 29.5502L8.9527 32.8949C8.24768 33.4092 7.36785 33.6238 6.50522 33.4918C5.67203 33.4117 4.84685 33.2795 3.96961 33.2755C4.06574 33.3316 4.15387 33.4237 4.25401 33.4357C5.15529 33.5559 6.05257 33.6961 6.95386 33.7642C7.6868 33.8021 8.41261 33.6042 9.02481 33.1994C9.18427 33.1021 9.37527 33.0705 9.55756 33.1112C11.9289 33.9364 14.2923 34.7776 16.6557 35.6148C16.6986 35.6376 16.7401 35.663 16.7799 35.6909C14.8972 37.3653 12.5859 37.1009 10.3347 37.1049V37.2531C10.4801 37.3082 10.6324 37.3432 10.7873 37.3573C11.7447 37.3573 12.702 37.3573 13.6594 37.2972C14.7962 37.1892 15.8779 36.7568 16.7758 36.0514C16.9043 35.9533 17.0565 35.8909 17.2169 35.8705C17.3773 35.8501 17.5402 35.8724 17.6891 35.9353C19.5558 36.5401 21.4345 37.137 23.2971 37.7058C23.4654 37.7579 23.6256 37.826 23.8659 37.9141C21.2823 39.7647 18.4743 39.3882 15.6422 39.1158C15.6983 39.1719 15.7544 39.268 15.8185 39.276C18.0136 39.5925 20.2248 39.937 22.3558 39.0237C22.9126 38.7833 23.4333 38.4549 23.9781 38.1865C24.1256 38.1005 24.2986 38.0693 24.4668 38.0983C28.1841 39.3695 31.9001 40.65 35.6147 41.9398C35.6387 41.9398 35.6587 41.9799 35.7429 42.056C35.0739 42.092 34.465 42.1241 33.8522 42.1641C30.3231 42.4005 26.8021 42.7249 23.4734 44.0628C21.8711 44.6997 20.3329 45.4248 18.7747 46.1418C18.5931 46.2616 18.3752 46.3136 18.1591 46.2887C17.943 46.2638 17.7425 46.1636 17.593 46.0056C16.6397 45.1404 15.6222 44.3352 14.3364 44.0028C13.9221 43.9166 13.5036 43.8524 13.0826 43.8105L13.0626 43.9907Z" fill="black"/>
<path d="M38.2865 42.172C39.2319 41.8796 40.1852 41.6272 41.1145 41.2947C42.7168 40.7259 44.2871 40.093 45.8893 39.5162C47.1592 39.0676 48.453 38.675 49.7428 38.2824C50.4078 38.0822 51.0847 37.9259 51.7457 37.7737C51.9128 37.7292 52.0907 37.7507 52.2424 37.8338C53.3261 38.6883 54.6337 39.2114 56.0078 39.34C57.3056 39.4882 58.6075 39.5442 59.9093 39.6324C60.0825 39.6412 60.2547 39.6009 60.406 39.5162C57.6821 39.1957 54.8301 39.4601 52.3626 37.6015C53.0475 37.3972 53.6284 37.237 54.1972 37.0447C54.9983 36.7683 55.7995 36.4599 56.6006 36.1835C56.7594 36.1177 56.9355 36.1064 57.1013 36.1514C59.1042 37.0527 61.2232 37.1689 63.3662 37.0567C64.1523 36.9725 64.9323 36.8387 65.7016 36.6561C65.825 36.6186 65.9295 36.5355 65.994 36.4238C63.0859 37.1147 60.0397 36.9463 57.2255 35.9391C58.3871 35.3142 59.4366 34.7374 60.5021 34.1926C60.6719 34.1409 60.8532 34.1409 61.0229 34.1926C62.5971 34.4971 64.1754 34.8576 65.7857 34.6172C66.743 34.477 67.6724 34.1686 68.6337 33.9322C68.6337 33.9042 68.6337 33.9322 68.6337 33.9563C67.3319 36.0593 65.8017 37.962 63.6066 39.1637C62.0724 40.0169 60.362 40.3654 58.6515 40.6378C56.0857 41.0552 53.4634 40.9735 50.9285 40.3975C49.8916 40.1668 48.8122 40.2152 47.8001 40.5377C47.6102 40.6225 47.4313 40.7301 47.2673 40.8581C46.8267 41.1265 46.7666 41.495 47.1712 41.8155C47.4806 42.058 47.843 42.224 48.2287 42.3002C49.7108 42.5605 51.1889 42.3723 52.663 42.148C55.0443 41.7413 57.4576 41.5509 59.8733 41.5791C61.7519 41.6352 63.4544 42.2721 65.1368 43.0132C67.8062 44.2182 70.3718 45.641 72.8077 47.2672C72.877 47.3388 72.9413 47.4151 73 47.4956L62.3087 46.6424C62.9624 45.9969 63.7501 45.5032 64.616 45.1963C65.4172 44.9319 66.2463 44.7957 67.1877 44.5914C66.9994 44.5033 66.9233 44.4312 66.8512 44.4392C65.5093 44.5108 64.212 44.9455 63.0979 45.697C62.7753 45.9775 62.4137 46.2096 62.0243 46.386C61.6342 46.5009 61.2223 46.5215 60.8226 46.4461C58.4632 46.0455 56.1039 45.6449 53.7485 45.2444C53.7205 45.2444 53.6965 45.2083 53.6524 45.1683C54.4535 43.606 56.0558 43.4778 57.6301 43.1654C57.4418 43.0492 57.4057 43.0012 57.3697 43.0052C55.8996 43.1654 54.4696 43.4378 53.5723 44.7917C53.5097 44.9206 53.3999 45.0205 53.2656 45.0705C53.1313 45.1205 52.9829 45.1167 52.8513 45.0601C50.6361 44.5354 48.445 43.9585 46.1978 43.5339C43.7663 43.0773 41.3068 42.7688 38.8593 42.3923C38.6631 42.3643 38.4588 42.3202 38.2785 42.2841L38.2865 42.172Z" fill="black"/>
<path d="M46.7386 54.8221C46.6865 53.328 45.6971 51.7978 47.023 50.3437C49.6347 53.2799 52.9915 55.2908 55.9397 57.8224C55.9036 57.8464 55.8716 57.8945 55.8395 57.8905C53.2461 57.8057 50.6757 57.3746 48.1966 56.6086C45.9353 55.8704 44.043 54.2935 42.9091 52.2024C42.0158 50.6281 41.2788 48.9617 40.5377 47.3074C40.0798 46.2319 39.3645 45.2855 38.4548 44.5515C38.2271 44.4054 37.9917 44.2717 37.7497 44.1509C37.7818 44.6556 37.8098 45.0362 37.8339 45.4167C38.1329 48.8563 38.1757 52.3134 37.962 55.7594C37.7538 58.4032 36.4719 60.5462 34.7294 62.453C34.389 62.8255 34.0124 63.162 33.5718 63.5986C33.3795 62.5411 33.3715 61.4275 31.9335 61.5957C31.9335 61.5076 31.9335 61.4595 31.9575 61.4515C34.8296 59.9734 36.2276 57.5019 36.5761 54.3975C36.9486 51.1048 36.7724 47.8001 36.6602 44.4994C36.6414 44.3851 36.6132 44.2726 36.5761 44.1629C36.198 44.4858 35.8544 44.8469 35.5506 45.2404C35.1897 45.832 34.884 46.4555 34.6373 47.1031C33.7597 49.4546 32.5497 51.6682 31.0442 53.6765C29.8268 55.3318 28.0199 56.4561 25.997 56.8169C24.2265 57.1334 22.444 57.3577 20.6654 57.6181C20.4933 57.6291 20.3207 57.6291 20.1487 57.6181C20.4731 57.3657 20.6814 57.1935 20.9018 57.0292L26.8062 52.623C27.8437 51.8807 28.7381 50.9564 29.4459 49.8951C29.5901 49.6667 29.7704 49.4544 29.9787 49.17C30.3793 50.7723 29.7904 52.0582 29.0494 53.336L29.2536 53.4041C29.3498 53.2679 29.4499 53.1317 29.5381 53.0035C30.2369 51.8658 30.52 50.521 30.3392 49.1981C30.3216 48.9285 30.3874 48.66 30.5275 48.429C31.0242 47.5958 31.5649 46.7866 32.1297 45.8814C32.4758 46.584 32.5732 47.3833 32.4061 48.1486C32.2339 48.8696 32.0496 49.5906 31.8614 50.3637C31.9936 50.3277 32.0697 50.3277 32.0777 50.3037C32.4782 49.1019 33.0471 47.8401 32.6064 46.5543C32.302 45.665 32.6064 45.1844 33.2193 44.6676C34.0943 43.835 35.1049 43.1577 36.2076 42.6648C36.4256 42.5689 36.662 42.5221 36.9001 42.5276C37.1382 42.5331 37.3722 42.5909 37.5855 42.6968C39.9159 43.737 42.0647 45.1434 43.9506 46.8628C43.6033 47.2736 43.3572 47.76 43.232 48.2832C43.1067 48.8063 43.1059 49.3515 43.2296 49.875C43.3196 50.4191 43.4536 50.9549 43.6301 51.4773C43.6301 50.0072 42.8851 48.4771 44.1829 47.0711L46.8667 50.0713C45.4527 51.6496 46.2939 53.2398 46.7386 54.8221Z" fill="black"/>
<path d="M59.2244 51.0968C57.6742 50.3598 56.0879 49.6948 54.5898 48.8696C53.0917 48.0445 52.0222 46.5824 50.9847 45.0242L51.5775 45.1443C53.1277 45.4848 54.6739 45.8213 56.2201 46.1738C56.3819 46.2065 56.5252 46.2996 56.6207 46.4342C57.1655 47.6359 58.1389 48.3208 59.2805 48.8376C60.6043 49.4334 61.999 49.8574 63.4304 50.0994C63.5115 50.1094 63.5936 50.1094 63.6748 50.0994C63.7148 50.0994 63.7469 50.0513 63.8069 50.0072C62.5131 49.6067 61.2353 49.2582 59.9815 48.8336C59.3172 48.6448 58.6976 48.3245 58.1595 47.8917C57.6215 47.4589 57.1758 46.9224 56.849 46.314C57.3017 46.3741 57.6502 46.4221 57.9907 46.4622C60.3941 46.7626 62.7695 47.027 65.1488 47.3835C65.6095 47.4516 66.0381 47.8362 66.4467 48.1286C67.1197 48.6093 67.7726 49.13 68.6418 49.1861C68.9172 49.2007 69.1921 49.1485 69.443 49.0339C68.8423 48.9591 68.2506 48.8249 67.6764 48.6333C67.1336 48.3379 66.6199 47.9919 66.1423 47.5998L66.2104 47.4676L72.3791 47.8682C72.2656 47.965 72.1451 48.0533 72.0186 48.1326C70.9571 48.6613 69.9076 49.2181 68.8141 49.7068C67.7205 50.1955 66.6149 50.6842 65.4813 51.0648C63.576 51.7648 61.5537 52.0912 59.5248 52.0261C57.0766 51.838 54.705 51.0867 52.595 49.831C51.7337 49.3423 50.8885 48.8256 50.0113 48.3689C49.4184 48.0605 49.078 48.1726 48.7695 48.6413C48.7062 48.714 48.6585 48.799 48.6295 48.8909C48.6005 48.9828 48.5908 49.0797 48.601 49.1756C48.6111 49.2715 48.6409 49.3642 48.6885 49.448C48.7361 49.5319 48.8005 49.605 48.8777 49.6628C49.1835 49.9116 49.5344 50.0993 49.9111 50.2155C50.909 50.4557 51.8485 50.8935 52.6741 51.5031C53.4998 52.1127 54.1948 52.8817 54.718 53.7646C55.5191 55.1065 56.2802 56.4725 57.0573 57.8304L56.8731 58.0026L52.0662 54.2693L52.0983 54.0931C52.5308 54.116 52.9616 54.1655 53.3881 54.2413C53.8311 54.3844 54.2835 54.4968 54.742 54.5778C54.6715 54.4965 54.5891 54.4263 54.4977 54.3695C53.6765 54.0009 52.8473 53.7005 51.914 53.9048C51.7445 53.9184 51.576 53.8684 51.4413 53.7646C49.5298 52.3988 47.8235 50.7666 46.3741 48.9177C44.4776 46.5078 42.0875 44.5314 39.3641 43.1214C39.308 43.0894 39.248 43.0574 39.1959 43.0213C39.1604 42.9779 39.1295 42.9309 39.1038 42.8811L40.4377 43.1014L48.0205 44.2791H48.1206C49.6548 44.4794 50.8765 45.0322 51.7257 46.5023C52.7472 48.2327 54.4336 49.3063 56.2802 50.1074C57.0814 50.4479 57.9025 50.7643 58.7157 51.0808C58.8698 51.1296 59.028 51.1645 59.1884 51.1849L59.2244 51.0968Z" fill="black"/>
<path d="M23.177 54.021C23.2812 53.9208 23.3933 53.8247 23.4935 53.7166C23.858 53.316 24.2265 52.9154 24.575 52.4908C25.3281 51.5935 26.3175 51.3732 27.5072 51.4333L19.4597 57.6221C19.5318 57.2776 19.5639 57.0453 19.636 56.821C19.9204 55.8877 20.2008 54.9583 20.5092 54.037C20.7282 53.3332 21.1173 52.6942 21.642 52.1765C22.1667 51.6588 22.8108 51.2783 23.5175 51.0688C24.3787 50.7804 25.2239 50.4479 26.0651 50.1034C26.5569 49.9146 27.0291 49.6785 27.4751 49.3984C27.5818 49.3245 27.6697 49.2265 27.7316 49.1124C27.7935 48.9983 27.8278 48.8712 27.8317 48.7415C27.7355 48.3649 27.359 48.4811 27.0706 48.5452C26.862 48.5943 26.6592 48.6654 26.4657 48.7575C25.2159 49.3503 23.9902 49.9953 22.7204 50.54C21.038 51.2651 19.3115 51.8539 17.4248 51.5855C15.6703 51.3292 13.9078 51.1209 12.1653 50.7844C10.3588 50.4559 8.5602 50.0153 6.76965 49.6227V49.4745L16.824 47.4436C16.1029 48.9858 15.3659 50.3558 13.5353 50.7003C13.7509 50.7776 13.983 50.7972 14.2086 50.7572C14.4341 50.7171 14.6453 50.6188 14.8211 50.4719C15.292 50.1248 15.7184 49.7212 16.0909 49.2702C16.3504 48.9916 16.5531 48.665 16.6878 48.3089C17.0283 47.2914 17.8695 46.9469 18.7547 46.5904C19.9004 46.1338 21.0179 45.601 22.1476 45.1083C22.8686 44.7918 23.5976 44.4834 24.4188 44.1349C23.83 47.007 22.1836 48.8416 19.5158 49.819L19.624 49.9832C19.7602 49.9617 19.8942 49.9282 20.0245 49.8831C21.2262 49.3383 22.428 48.6814 23.1971 47.5918C23.7695 46.6511 24.2306 45.6469 24.571 44.5996C24.6155 44.4225 24.7072 44.2608 24.8362 44.1318C24.9653 44.0027 25.127 43.911 25.3041 43.8665C27.8467 43.2087 30.4486 42.8061 33.0711 42.6648C33.7761 42.6127 34.4851 42.5807 35.3063 42.5286C35.2312 42.6021 35.1523 42.6717 35.07 42.7369C33.3701 43.7703 31.9483 45.2031 30.9281 46.9109C30.0909 48.2488 29.1015 49.4986 28.1842 50.7844C28.0971 50.9238 27.9721 51.0355 27.8238 51.1064C27.6755 51.1774 27.5101 51.2046 27.347 51.185C26.737 51.1284 26.1227 51.2281 25.562 51.4748C25.0013 51.7215 24.5128 52.107 24.1424 52.595C23.7859 53.0436 23.4013 53.4722 23.0288 53.9128L23.177 54.021Z" fill="black"/>
<path d="M14.4205 5.27161C14.5574 5.30486 14.6913 5.34907 14.8211 5.40379C18.7347 7.53884 22.4319 9.95428 25.6365 13.1148C26.1492 13.6275 26.6059 14.1963 27.0906 14.7171C28.9693 16.812 29.4299 19.3757 29.5701 22.0635C29.6903 24.3548 29.8532 26.6434 30.0588 28.9293C30.1309 29.7304 29.0093 30.7719 28.4565 30.9321C28.3804 30.9562 28.2162 30.848 28.1601 30.7599C27.7595 30.131 27.359 29.4981 27.0185 28.8492C26.987 28.7103 27.0084 28.5646 27.0786 28.4406C27.5232 27.7276 28.0479 27.0626 28.4405 26.3256C29.0645 25.0514 29.2067 23.5946 28.8411 22.2237C28.8072 22.0935 28.7294 21.9789 28.6208 21.8993C28.7329 23.077 28.8891 24.2426 28.5246 25.3842C28.1296 26.5374 27.4932 27.593 26.658 28.4807C26.0371 27.0787 25.4763 25.7488 24.8554 24.4469C24.6336 24.02 24.5161 23.5465 24.5126 23.0654C24.5091 22.5842 24.6197 22.1091 24.8354 21.679C25.9249 19.1714 25.6365 16.6118 24.7673 14.0922C24.7232 13.9949 24.6695 13.9023 24.607 13.8158L24.4829 13.8438C24.5189 14.0121 24.5389 14.1843 24.591 14.3485C25.1558 16.1671 25.5163 18.0097 25.0917 19.9044C24.8995 20.7617 24.599 21.5949 24.3467 22.4361H24.1824C23.9982 21.8432 23.7819 21.2584 23.6457 20.6535C23.0088 17.5491 21.5667 14.8092 19.7641 12.2656C18.1739 10.0144 16.4554 7.91537 14.8211 5.75229C14.7089 5.60809 14.6088 5.50394 14.4205 5.27161Z" fill="black"/>
</svg>
