<svg width="38" height="53" viewBox="0 0 38 53" fill="none" xmlns="http://www.w3.org/2000/svg">
<path d="M13.5804 6.22434C14.3348 4.71541 15.6552 2.82925 17.7299 1.1317C18.2958 0.754465 18.8616 0.377233 19.4275 0C20.7478 0.754465 22.634 2.2634 24.1429 4.71541C24.5201 5.28126 24.7087 5.84711 25.086 6.41296C23.1998 8.1105 21.125 9.99667 19.2389 11.6942C17.3527 9.99667 15.4665 8.1105 13.5804 6.22434Z" fill="#080100"/>
<path d="M20.5592 13.5804C23.0112 11.5056 25.4632 9.2422 27.9152 7.16742C28.6697 8.29912 29.8014 9.80805 30.5559 12.2601C30.9331 13.5804 31.499 15.4665 31.499 17.9186C29.99 18.8616 28.4811 19.6161 27.1608 20.5592C24.8974 18.1072 22.8226 15.8438 20.5592 13.5804Z" fill="#080100"/>
<path d="M10.3739 6.79022C8.86497 8.67639 6.9788 11.6942 6.22434 15.6552C6.03572 16.4097 5.84711 17.1641 5.84711 17.9186C10.5625 20.182 15.2779 22.634 19.9933 25.086C21.6909 23.9543 23.3884 23.0112 25.086 21.8795C20.1819 16.7869 15.2779 11.6942 10.3739 6.79022Z" fill="#080100"/>
<path d="M11.6942 33.3851C19.0503 28.4811 26.4063 23.7657 33.7623 18.8616C34.3282 20.9364 34.7054 23.1998 34.894 25.6518C35.0826 27.538 35.2713 29.4241 35.2713 30.9331C30.1786 32.8192 25.086 34.7054 19.9933 36.5916C17.3527 35.4599 14.5235 34.3282 11.6942 33.3851Z" fill="#080100"/>
<path d="M0 32.442C6.22434 34.5168 12.4487 36.5916 18.4844 38.6664C21.6909 42.4387 24.8974 46.3996 28.2924 50.172C26.9721 51.115 24.8974 52.4353 21.8795 52.8126C13.769 54.1329 5.65849 48.2858 2.07478 41.307C0.377233 37.9119 0 34.7054 0 32.442Z" fill="#080100"/>
<path d="M21.8795 38.2891C27.1607 36.403 32.442 34.3282 37.7232 32.442C37.7232 34.5168 37.346 38.1005 35.4598 41.8728C33.9509 45.0793 31.8761 47.3427 30.3672 48.663C27.5379 45.2679 24.7087 41.6842 21.8795 38.2891Z" fill="#080100"/>
<path d="M3.20647 19.4275C7.92188 21.6909 12.6373 24.1429 17.3527 26.5949C14.5235 28.6697 11.6942 30.7445 8.86496 32.8192C6.79018 32.0648 4.52679 31.4989 2.45201 30.7445C2.26339 29.0469 2.26339 26.9721 2.45201 24.5201C2.45201 22.634 2.82924 20.9364 3.20647 19.4275Z" fill="#080100"/>
</svg>
