<svg width="55" height="55" viewBox="0 0 55 55" fill="none" xmlns="http://www.w3.org/2000/svg">
<path d="M51.5737 36.3336C51.0532 36.6783 50.3592 37.023 49.5351 36.7214C50.099 36.3336 50.6195 35.9889 51.2267 35.6011C50.2725 34.5669 50.0122 33.4035 50.099 32.1539C50.1857 30.1718 49.3183 28.5344 48.0171 27.1556C46.2821 25.3027 44.1568 23.9669 41.9014 22.8466C35.3954 19.6149 28.4556 18.0637 21.2122 17.5897C19.7375 17.5035 18.4797 16.5987 18.2195 15.1767C17.8291 12.8068 17.6556 10.523 18.7833 8.32548C17.9159 7.72223 16.9616 7.16207 16.6147 6.04175C17.2219 7.11898 18.1761 7.63605 19.3906 7.76532C20.1279 7.80841 20.8653 7.76532 21.6026 7.67914C22.2966 7.59296 22.6869 7.20516 22.7737 6.60191C22.8604 5.91248 22.4701 5.52467 21.9496 5.30923C21.1689 5.0076 20.3448 4.70597 19.5207 4.49053C18.74 4.27508 17.9592 4.10272 17.1785 3.93036C17.1785 3.84418 17.2219 3.8011 17.2219 3.71492C25.6363 4.27508 33.5303 6.98971 41.511 9.40272C41.7713 8.97183 41.5978 8.71329 41.2508 8.49784C40.7737 8.23931 40.2966 7.93768 39.7761 7.72223C35.4388 5.69703 30.8412 4.53362 26.1568 3.58565C24.0315 3.15475 21.9062 2.81004 19.7809 2.37914C27.0243 3.02549 34.1375 4.1889 41.1641 6.04175C41.2074 5.99866 41.2074 5.95557 41.2508 5.91248C40.8171 5.65394 40.4267 5.3954 39.993 5.17996C37.5207 3.88727 34.8315 3.28402 32.1424 2.72386C28.1086 1.90516 23.9881 1.51736 19.8677 1.12955C17.2219 0.914103 14.6195 0.871014 11.9737 1.345C10.6725 1.56044 9.37128 1.90516 7.98333 1.60353C7.72309 1.56044 7.33273 1.7328 7.07249 1.86207C5.68454 2.5515 4.29659 3.28402 2.90863 4.01654C2.86526 4.10272 2.69177 4.27508 2.69177 4.36126C2.64839 5.43849 2.12791 6.04175 1.04357 6.12792C1.17369 7.11898 1.69418 7.76532 2.60502 8.06695C3.08213 8.23931 3.64598 8.36857 4.16647 8.36857C5.68454 8.36857 7.02911 8.88565 8.28695 9.66126C9.97851 10.6523 11.6701 11.5141 13.7086 10.7816C12.6243 11.6865 11.3231 11.6865 10.0219 11.471C9.97851 11.6003 9.93514 11.6434 9.93514 11.7295C9.24116 14.7027 8.89418 17.719 9.24116 20.7352C9.45803 22.6312 10.0219 24.3548 11.3665 25.8198C13.6653 28.319 15.7038 31.0336 17.4821 33.9206C18.6532 35.8165 19.6074 37.7125 19.6942 40.0393C19.7809 41.6336 20.2147 43.1417 21.3857 44.3482C21.4725 44.4775 21.5592 44.6499 21.5592 44.7791C21.7761 46.9767 21.993 49.1743 21.5159 51.3718C21.2122 52.8369 20.5616 53.6556 19.4339 54.0003H23.0339C23.0339 52.9661 22.9906 51.9751 23.0339 50.984C23.1207 49.1743 23.2508 47.3645 23.4243 45.5548C23.4677 45.1239 23.6412 44.693 23.858 44.3052C24.7689 42.4523 25.1159 40.5995 24.3785 38.6174C24.3351 38.445 24.3351 38.2295 24.3785 38.0141C24.5086 37.497 24.6821 36.9369 24.8122 36.4198C25.2026 34.9548 25.0725 33.4897 24.4653 32.1108C24.205 31.5076 23.9448 30.9474 23.5978 30.1718C25.3761 32.4125 26.3737 33.4035 25.2026 37.1092C28.499 36.8507 31.4484 38.3588 34.5713 39.0482C34.658 36.98 34.9616 35.0409 36.2195 33.1881C36.2195 33.4035 36.2195 33.4897 36.2195 33.5328C35.3954 35.4718 35.2653 37.4539 35.4821 39.5222C35.5255 39.8239 35.6122 40.1255 35.7857 40.3409C37.0869 42.1938 38.3881 44.0466 39.6893 45.8564C39.9496 46.2011 39.9496 46.4596 39.7761 46.8043C38.952 48.7865 38.1279 50.7686 37.3038 52.7507C37.0436 53.3539 36.6532 53.8279 36.0894 54.0434H40.0797C40.2098 53.6125 40.2532 53.2678 40.3833 52.88C41.0339 51.0271 41.6412 49.1312 43.3761 47.9247C43.4195 47.8816 43.5062 47.7954 43.5062 47.7523C43.593 46.7613 43.94 45.7271 43.1592 44.8222C42.9857 44.6499 42.9424 44.3482 42.9424 44.0897C42.9424 42.6247 43.4195 41.2889 44.0701 39.9962C44.4171 39.3068 44.8508 38.7466 45.5448 38.4019C45.8918 38.2295 46.1954 37.971 46.4556 37.7556C46.1954 37.1954 45.9351 36.7214 45.6749 36.2043C45.7183 36.1613 45.7616 36.1613 45.805 36.1182C46.0653 36.3336 46.3689 36.506 46.6291 36.7214C47.0195 37.023 47.3231 37.0661 47.6701 36.6352C47.9303 36.2905 48.2773 36.032 48.5809 35.7734C49.3183 38.7035 50.1857 39.4791 52.5279 39.393C53.7424 39.3499 54.7833 38.6604 54.9134 37.8848C53.8725 37.3678 52.7448 36.8507 51.5737 36.3336ZM5.81466 5.8263C4.94719 5.48158 4.12309 5.17996 3.34237 4.87833C3.7761 4.36126 4.25321 4.27508 4.99056 4.5767C5.46767 4.83524 5.9014 5.09378 5.81466 5.8263ZM8.15683 6.68809C7.93996 6.645 7.72309 6.38646 7.59297 6.30028C7.59297 5.56776 7.98333 5.05069 8.46044 5.05069C8.8508 5.09378 9.19779 5.26614 9.19779 5.69703C9.19779 6.17101 8.59056 6.73118 8.15683 6.68809ZM12.2773 6.86044C12.1038 7.07589 11.8869 7.20516 11.6701 7.42061C12.2773 8.49784 12.2773 8.49784 11.5833 8.79947C11.8436 9.31654 11.6267 9.66126 11.193 9.96288C10.5857 10.3938 9.84839 10.3507 9.32791 9.91979C9.93514 9.23036 10.499 8.49784 11.0195 7.89459C10.8894 7.50679 10.6291 7.20516 10.6725 6.94662C10.7159 6.51573 11.4966 6.08483 11.9303 6.12792C12.3207 6.17101 12.5375 6.55882 12.2773 6.86044ZM9.24116 4.05963C10.3689 3.32711 10.9761 3.3702 11.6267 4.23199C10.8026 4.61979 10.0219 4.44744 9.24116 4.05963ZM12.5375 3.58565C11.4098 3.3702 10.2388 3.15475 9.11104 2.9824C9.0243 2.24988 9.06767 2.1637 9.71827 2.33605C10.499 2.50841 11.2363 2.76695 12.0171 3.02549C12.2339 3.11166 12.4074 3.32711 12.6243 3.49947C12.6243 3.49947 12.5809 3.54256 12.5375 3.58565ZM49.6653 48.6572C49.5351 47.623 49.3183 46.632 49.3616 45.5978C49.405 44.4775 50.099 43.6157 50.8797 42.7539C48.4074 42.5816 47.0628 41.0304 45.8484 39.0913C44.4171 40.4271 43.9833 42.1076 43.593 43.8743C43.7231 43.9604 43.8532 44.0466 43.94 44.0897C45.5881 44.5206 46.3255 45.7271 46.8026 47.2352C46.8026 47.2783 46.846 47.3645 46.8893 47.4076C47.4532 49.0019 47.9737 50.5962 47.9303 52.3198C47.8869 53.2247 47.5833 53.7848 46.9761 54.0434H50.3592C50.3592 54.0003 50.3592 54.0003 50.3592 54.0003C50.099 52.1905 49.8821 50.4239 49.6653 48.6572Z" fill="black"/>
<path d="M18.74 45.7702C18.74 45.8133 18.74 45.8564 18.74 45.8995C18.74 46.8905 18.2629 47.2352 17.3086 46.8905C17.1785 46.8474 17.0918 46.6751 17.0484 46.5458C16.8315 45.9856 16.4412 45.5978 15.8339 45.5117C13.9255 45.21 12.5376 44.0897 11.3665 42.6677C10.8026 41.9352 10.2821 41.1165 9.80502 40.2978C9.19779 39.2206 8.41707 38.3157 7.41948 37.6263C6.16165 36.7645 6.16165 34.9978 7.50623 34.3084C9.06767 33.5328 10.1954 32.2832 11.3665 31.1198C11.8002 30.6889 12.2773 30.3011 12.7978 29.9564C12.9279 29.8702 13.1882 29.8702 13.3183 29.9564C14.6195 30.9905 15.5303 32.3694 16.0508 33.9637C16.0942 34.0929 15.9641 34.3084 15.8773 34.4377C15.5737 34.8686 15.1833 35.2994 14.9231 35.7734C14.5327 36.4629 13.9689 36.8938 13.1882 36.9368C12.711 36.9799 12.1906 36.8938 11.7135 36.8938C11.2363 36.8507 10.8894 37.0661 10.6725 37.497C10.4556 37.9279 10.499 38.4019 10.846 38.7466C12.1906 40.0824 13.5351 41.4612 14.9665 42.7108C15.4002 43.0986 16.0942 43.2279 16.7014 43.4864C16.9183 43.5726 17.1785 43.6588 17.3954 43.745C18.6532 44.3051 18.74 44.3913 18.74 45.7702Z" fill="black"/>
<path d="M2.30141 4.23199C2.43153 5.17996 1.95442 5.69704 1.08695 5.65395C0.87008 4.6198 0.956827 4.53362 2.30141 4.23199Z" fill="black"/>
</svg>
